<svg xmlns="http://www.w3.org/2000/svg" width="32" height="32" viewBox="0 0 32 32">
  <path id="Icon_awesome-dribbble" data-name="Icon awesome-dribbble" d="M16.563.563a16,16,0,1,0,16,16A16.018,16.018,0,0,0,16.563.563ZM27.141,7.941a13.6,13.6,0,0,1,3.086,8.513,31.937,31.937,0,0,0-9.516-.44c-.371-.906-.721-1.7-1.2-2.685A18.2,18.2,0,0,0,27.141,7.941Zm-1.519-1.58c-.246.35-2.3,3.115-7.163,4.937a72.949,72.949,0,0,0-5.1-8A13.631,13.631,0,0,1,25.622,6.361ZM10.752,4.215a87.2,87.2,0,0,1,5.067,7.9A50.976,50.976,0,0,1,3.185,13.784,13.716,13.716,0,0,1,10.752,4.215ZM2.9,16.583c0-.14,0-.279.007-.418a50.413,50.413,0,0,0,14.046-1.945c.391.766.765,1.543,1.108,2.319A21.169,21.169,0,0,0,6.409,25.721,13.612,13.612,0,0,1,2.9,16.583ZM8.174,27.365c1.428-2.918,5.3-6.685,10.812-8.565A56.808,56.808,0,0,1,21.9,29.164a13.639,13.639,0,0,1-13.727-1.8Zm16.025.548a58.985,58.985,0,0,0-2.655-9.744,20.059,20.059,0,0,1,8.513.584,13.69,13.69,0,0,1-5.858,9.16Z" transform="translate(-0.563 -0.563)"/>
</svg>
