<svg xmlns="http://www.w3.org/2000/svg" width="30" height="30" viewBox="0 0 30 30"><defs><style>.a{fill:#ea4c89;}</style></defs><path class="a" d="M15.563.563a15,15,0,1,0,15,15A15.017,15.017,0,0,0,15.563.563ZM25.48,7.48a12.751,12.751,0,0,1,2.893,7.981,29.941,29.941,0,0,0-8.921-.412c-.348-.849-.676-1.6-1.126-2.517A17.067,17.067,0,0,0,25.48,7.48ZM24.056,6a14.466,14.466,0,0,1-6.715,4.628,68.39,68.39,0,0,0-4.781-7.5A12.779,12.779,0,0,1,24.056,6ZM10.115,3.987a81.751,81.751,0,0,1,4.75,7.41A47.79,47.79,0,0,1,3.021,12.958,12.859,12.859,0,0,1,10.115,3.987ZM2.75,15.582c0-.131,0-.261.007-.392a47.262,47.262,0,0,0,13.168-1.823c.367.718.717,1.446,1.039,2.174A19.846,19.846,0,0,0,6.044,24.149,12.761,12.761,0,0,1,2.75,15.582ZM7.7,25.69c1.338-2.736,4.97-6.267,10.136-8.03a53.257,53.257,0,0,1,2.733,9.716A12.786,12.786,0,0,1,7.7,25.69Zm15.023.513a55.3,55.3,0,0,0-2.489-9.135,18.805,18.805,0,0,1,7.981.548A12.835,12.835,0,0,1,22.721,26.2Z" transform="translate(-0.563 -0.563)"/></svg>