<svg xmlns="http://www.w3.org/2000/svg" width="316" height="316" viewBox="0 0 316 316"><g transform="translate(-30 -160)" opacity="0.802"><rect width="102" height="102" rx="10" transform="translate(137 160)" fill="#3f4045"/><rect width="102" height="102" rx="10" transform="translate(244 160)" fill="#3f4045"/><rect width="102" height="102" rx="10" transform="translate(30 267)" fill="#3f4045"/><rect width="102" height="102" rx="10" transform="translate(244 267)" fill="#3f4045"/><rect width="102" height="102" rx="10" transform="translate(30 374)" fill="#3f4045"/><rect width="102" height="102" rx="10" transform="translate(137 374)" fill="#3f4045"/><rect width="102" height="102" rx="10" transform="translate(244 374)" fill="#3f4045"/><g transform="translate(0 -107)"><rect width="102" height="102" rx="10" transform="translate(137 267)" fill="#c950ff"/><path d="M1.848,0H13.992l19.14-27.192h1.32L53.592,0H65.736L40.656-34.716,64.416-66.66H52.668L34.452-41.844h-1.32L14.916-66.66H3.168l23.76,31.944Z" transform="translate(154 353.25)" fill="#51f2e6"/></g><g transform="translate(0 107)"><rect width="102" height="102" rx="10" transform="translate(137 267)" fill="#c950ff"/><path d="M1.848,0H13.992l19.14-27.192h1.32L53.592,0H65.736L40.656-34.716,64.416-66.66H52.668L34.452-41.844h-1.32L14.916-66.66H3.168l23.76,31.944Z" transform="translate(154 353.25)" fill="#51f2e6"/></g><g transform="translate(-107)"><rect width="102" height="102" rx="10" transform="translate(244 267)" fill="#51f2e6"/><path d="M42.372,2.64c20.856,0,35.772-14.916,35.772-36.036,0-20.988-14.916-35.9-35.772-35.9C21.384-69.3,6.6-54.384,6.6-33.4,6.6-12.276,21.384,2.64,42.372,2.64Zm0-9.9c-14.52,0-24.816-10.956-24.816-26.136,0-15.048,10.3-26,24.816-26,14.388,0,24.816,10.956,24.816,26C67.188-18.216,56.76-7.26,42.372-7.26Z" transform="translate(252.4 351.3)" fill="#c950ff"/></g><g transform="translate(0 -107)"><rect width="102" height="102" rx="10" transform="translate(244 267)" fill="#51f2e6"/><path d="M42.372,2.64c20.856,0,35.772-14.916,35.772-36.036,0-20.988-14.916-35.9-35.772-35.9C21.384-69.3,6.6-54.384,6.6-33.4,6.6-12.276,21.384,2.64,42.372,2.64Zm0-9.9c-14.52,0-24.816-10.956-24.816-26.136,0-15.048,10.3-26,24.816-26,14.388,0,24.816,10.956,24.816,26C67.188-18.216,56.76-7.26,42.372-7.26Z" transform="translate(252.4 351.3)" fill="#c950ff"/></g><rect width="102" height="102" rx="10" transform="translate(30 160)" fill="#51f2e6"/><path d="M42.372,2.64c20.856,0,35.772-14.916,35.772-36.036,0-20.988-14.916-35.9-35.772-35.9C21.384-69.3,6.6-54.384,6.6-33.4,6.6-12.276,21.384,2.64,42.372,2.64Zm0-9.9c-14.52,0-24.816-10.956-24.816-26.136,0-15.048,10.3-26,24.816-26,14.388,0,24.816,10.956,24.816,26C67.188-18.216,56.76-7.26,42.372-7.26Z" transform="translate(38.4 244.3)" fill="#c950ff"/></g></svg>