<svg xmlns="http://www.w3.org/2000/svg" width="51.044" height="32" viewBox="0 0 51.044 32">
  <defs>
    <style>
      .cls-1 {
        fill: #fbfffe;
      }
    </style>
  </defs>
  <path id="Icon_awesome-behance" data-name="Icon awesome-behance" class="cls-1" d="M20.559,19.64a6.725,6.725,0,0,0,4.289-6.558c0-6.256-4.661-7.781-10.04-7.781H0V36.708H15.225c5.707,0,11.068-2.738,11.068-9.119,0-3.944-1.87-6.859-5.734-7.949ZM6.9,10.663h6.478c2.49,0,4.732.7,4.732,3.589,0,2.667-1.746,3.74-4.209,3.74h-7Zm7.382,20.71H6.9V22.724h7.524c3.04,0,4.963,1.267,4.963,4.484,0,3.173-2.3,4.165-5.1,4.165Zm31.77-21.33H33.32V6.95H46.055Zm4.989,15.623c0-6.726-3.935-12.336-11.068-12.336-6.93,0-11.636,5.211-11.636,12.034C28.34,32.445,32.8,37.3,39.976,37.3c5.432,0,8.95-2.446,10.643-7.648H45.107c-.594,1.941-3.04,2.969-4.936,2.969-3.66,0-5.583-2.145-5.583-5.787h16.4C51.017,26.464,51.044,26.065,51.044,25.666ZM34.6,22.9a4.881,4.881,0,0,1,5.184-4.856c3.137,0,4.714,1.843,4.98,4.856Z" transform="translate(0 -5.302)"/>
</svg>
