<svg width="240" height="240" viewBox="0 0 240 240" fill="none" xmlns="http://www.w3.org/2000/svg">
<rect width="48.3803" height="59.6008" transform="matrix(-1 0 0 1 108.605 143.977)" fill="#FFD700"/>
<path fill-rule="evenodd" clip-rule="evenodd" d="M122.717 85.6807C117.502 81.708 104.409 79.9214 98.8429 83.7467C93.3453 87.5879 92.7459 93.7998 90.1841 99.5143C87.767 98.3741 83.7754 100.007 83.0746 102.251C82.2055 103.309 82.1664 106.282 81.5671 107.705C55.4878 111.858 51.5284 132.198 48.3894 155.289C44.2368 178.722 34.8098 202.103 38.9022 226.215C38.369 226.987 37.9486 227.737 37.5598 228.628C36.6284 230.213 37.8282 232.458 39.707 232.371C42.1389 232.157 44.5467 231.866 46.99 231.774C53.7632 231.539 60.5425 231.567 67.3183 231.653L68.2422 231.665C102.39 232.091 136.536 232.929 170.685 233.151C171.924 233.153 172.531 232.041 172.365 230.945C172.032 228.737 171.723 226.529 171.4 224.32C179.478 226.454 188.064 226.991 196.119 224.544C196.682 223.97 194.806 224.281 194.508 224.194C201.921 219.127 199.707 208.452 199.05 200.764C194.968 174.419 193.528 145.27 177.753 122.789C170.928 113.615 160.923 106.351 149.426 104.717L149.107 104.673C145.745 104.225 141.999 104.08 139.06 102.251C135.754 99.6108 134.345 94.7327 130.867 94.687C129.719 94.6719 128.157 96.1253 126.476 97.112C126.35 94.9413 125.181 93.1094 124.923 91.4264L124.902 91.2824C124.632 89.3202 125.001 87.5549 122.717 85.6807ZM66.6701 155.985C73.9991 150.892 92.9314 153.451 93.3648 153.736C94.3191 154.364 94.7301 154.42 95.2462 155.235C95.7558 155.303 96.2649 155.373 96.7737 155.445C97.7943 155.779 97.038 157.035 95.8591 156.587C96.5682 159.646 94.4814 161.821 93.6507 164.846C93.381 165.828 93.641 167.594 93.6507 168.597C93.5702 169.876 92.1563 171.387 92.3919 172.671C93.2297 177.234 97.7758 181.685 95.8591 186.11C94.5894 188.609 90.7705 189.883 88.2315 190.733C82.9711 192.753 73.8055 190.657 70.7491 186.11C69.1188 183.684 67.2301 177.566 66.2581 175.668L66.0426 172.658C65.5113 165.175 65.0387 157.119 66.6701 155.985Z" fill="#EDB98A"/>
<path fill-rule="evenodd" clip-rule="evenodd" d="M131.138 94.7009L129.041 95.9885L116.86 102.012C114.498 102.674 113.317 103.467 113.317 104.391V113.8C113.317 115.059 111.101 117.913 106.669 122.361L102.574 118.277L102.666 117.743C103.056 115.439 103.25 113.898 103.25 113.119C103.25 112.282 99.2445 109.105 91.2325 103.586L87.7273 100.285L88.1011 99.1479C85.9399 99.2501 83.5961 100.582 83.0746 102.251C82.2055 103.309 82.1664 106.283 81.5671 107.705C55.4878 111.858 51.5284 132.198 48.3894 155.29C44.2368 178.722 34.8098 202.103 38.9022 226.215C38.369 226.987 37.9486 227.737 37.5598 228.628C36.6284 230.214 37.8282 232.458 39.707 232.371C42.1389 232.158 44.5467 231.866 46.99 231.775C53.7632 231.54 60.5425 231.568 67.3183 231.654L68.2422 231.666C102.39 232.091 136.536 232.929 170.685 233.151C171.924 233.153 172.531 232.042 172.365 230.945C172.032 228.738 171.723 226.529 171.4 224.32C179.478 226.455 188.064 226.992 196.119 224.545C196.682 223.971 194.806 224.282 194.508 224.195C201.921 219.127 199.707 208.453 199.05 200.764C194.968 174.419 193.528 145.27 177.753 122.79C170.928 113.615 160.923 106.352 149.426 104.717L149.107 104.673L148.786 104.632C145.508 104.214 141.905 104.023 139.06 102.251C135.841 99.6808 134.421 94.989 131.138 94.7009ZM101.951 149.928C103.145 149.928 105.592 151.784 109.291 155.496L109.617 155.647C114.088 157.725 117.051 159.527 118.504 161.054L118.556 161.109C120.023 162.684 122.93 166.873 127.276 173.676L133.569 177.399H135.95L137.645 189.7L133.569 198.484L124.335 195.372L109.291 191.405L100.658 182.644L95.7886 181.008C96.3794 182.716 96.5936 184.415 95.8593 186.11C94.5896 188.609 90.7707 189.884 88.2317 190.733C82.9714 192.753 73.8057 190.657 70.7493 186.11C69.1191 183.685 67.2303 177.567 66.2583 175.669L65.9795 171.758C65.4771 164.542 65.1042 157.074 66.6703 155.986C73.9994 150.892 92.9317 153.451 93.3651 153.737C94.3194 154.365 94.7303 154.42 95.2464 155.236L95.5136 155.271L94.0111 153.233L94.5431 152.949C98.3392 150.935 100.808 149.928 101.951 149.928ZM95.8592 156.587C96.538 159.516 94.6544 161.635 93.7636 164.464L96.0397 160.105L96.0397 156.643C95.9808 156.629 95.9206 156.61 95.8592 156.587Z" fill="white"/>
<path fill-rule="evenodd" clip-rule="evenodd" d="M132.144 94.246C131.638 93.7977 130.89 94.361 131.211 94.9665C131.934 96.3274 132.675 97.6168 133.644 98.8198C134.232 99.5492 134.862 100.239 135.5 100.921C133.862 102.339 132.458 104.099 131.131 105.748C129.435 107.858 127.831 110.056 125.927 111.987C124.049 113.89 121.973 115.221 119.462 116.109L118.955 116.285C116.433 117.17 113.737 118.367 112.315 120.756C112.035 121.227 112.6 121.809 113.074 121.515C115.545 119.985 118.447 119.677 121.136 118.666C123.734 117.689 125.998 116.186 127.999 114.268C129.996 112.352 131.673 110.173 133.422 108.04C135.152 105.931 137.015 104.13 139.061 102.346C142.218 104.471 145.823 105.395 149.488 106.303L149.888 106.402C153.557 107.311 157.206 108.367 160.649 109.949C163.684 111.344 166.669 113.011 169.141 115.281C171.766 117.69 173.808 120.767 175.678 123.777C179.86 130.51 182.8 137.886 185.388 145.352C188.08 153.117 190.332 161.038 192.149 169.053C193.074 173.13 193.825 177.236 194.442 181.37C194.739 183.362 195.003 185.357 195.234 187.357C195.482 189.493 195.539 191.69 196.194 193.744C196.474 194.624 197.137 194.989 197.801 194.958L197.936 196.644C198.114 198.893 198.281 201.142 198.337 203.404C198.431 207.166 198.388 210.916 198.118 214.67L198.08 215.182C197.867 217.921 197.392 221 195.333 223.005C193.2 225.083 189.921 225.736 187.047 225.774C180.352 225.861 173.908 222.697 167.984 219.921C161.883 217.062 155.949 213.888 150.157 210.447C147.207 208.694 144.289 206.883 141.409 205.019C139.995 204.104 138.591 203.174 137.198 202.228C136.4 201.687 135.644 201.093 134.832 200.613C135.23 200.242 135.407 199.659 135.074 199.15C137.422 197.111 138.4 193.472 138.514 190.528C138.606 188.151 138.257 185.781 137.981 183.427C137.841 182.24 137.67 181.055 137.491 179.873C137.42 179.406 137.367 178.907 137.284 178.414C143.625 181.9 150.143 185.004 156.834 187.762C160.264 189.176 163.738 190.447 167.259 191.611L167.973 191.846C171.31 192.939 174.727 193.971 178.176 194.596C178.36 194.629 178.51 194.357 178.313 194.27C174.952 192.786 171.474 191.535 168.061 190.168L167.501 189.939V189.939C167.565 189.936 167.632 189.927 167.702 189.91C169.703 189.427 171.688 188.683 173.651 188.056C175.472 187.474 177.519 187.108 179.222 186.23C179.353 186.162 179.279 185.98 179.152 185.972C177.238 185.839 175.161 186.397 173.284 186.725L172.58 186.849C171.399 187.057 170.192 187.281 169.017 187.573C168.974 187.179 168.754 186.784 168.441 186.552C164.998 184.001 165.348 178.849 164.98 175.05L164.707 172.23C164.226 167.293 163.718 162.358 162.946 157.459C162.905 157.197 162.501 157.272 162.499 157.519C162.459 163.592 162.917 169.637 163.147 175.701L163.183 176.696C163.31 180.437 163.409 184.322 165.765 187.201C165.435 187.009 164.99 187.009 164.723 187.326C164.395 187.716 164.206 188.155 164.212 188.585C162.083 187.692 159.964 186.776 157.855 185.842C151.075 182.837 144.437 179.474 137.975 175.835C137.279 175.444 136.618 175.751 136.274 176.268L136.224 176.261C136.216 176.259 136.208 176.259 136.199 176.258L136.15 176.256C136.148 176.256 136.146 176.256 136.144 176.256C135.235 175.756 133.995 176.113 133.215 176.842C133.192 176.864 133.172 176.888 133.152 176.911C132.163 176.467 131.24 175.868 130.403 175.108C128.689 173.555 127.238 171.633 125.972 169.706C123.642 166.158 121.662 162.212 118.514 159.291C115.956 156.917 112.785 155.44 109.458 154.512C109.472 154.415 109.435 154.312 109.368 154.243C109.197 154.067 109.075 154.007 108.854 154.113C108.837 154.122 108.826 154.134 108.819 154.146L108.494 153.591C108.317 153.29 108.135 152.987 108.072 152.907C107.694 152.432 107.305 151.959 106.911 151.497C106.242 150.715 105.479 149.942 104.596 149.4C102.663 148.212 100.631 148.884 98.6437 149.533C97.4429 149.926 96.2461 150.331 95.0473 150.729L94.9237 150.77C94.0298 151.057 92.9839 151.308 92.5842 152.256C92.4259 152.63 92.4014 153.02 92.4751 153.397C83.9856 151.237 74.5563 152.23 66.2718 154.765C65.9539 154.862 65.6363 155.124 65.5694 155.467C64.6201 160.337 64.1974 165.331 64.6269 170.284C64.9975 174.559 65.9444 178.749 67.7287 182.663L67.8302 182.884C69.5071 186.511 72.165 190.982 76.224 192.119C78.6749 192.806 81.3857 192.401 83.8854 192.275C86.3148 192.153 88.798 192.135 91.2044 191.753C93.3475 191.413 95.2252 190.452 96.5496 188.709C97.6922 187.205 98.2939 185.387 98.7868 183.579C99.0124 183.651 99.2365 183.727 99.4571 183.813C100.388 184.177 101.177 184.764 101.89 185.455C103.396 186.914 104.565 188.687 106.141 190.079C107.567 191.339 109.193 192.32 110.936 193.073C114.549 194.635 118.425 195.259 122.247 196.087L122.513 196.145C125.39 196.776 128.327 197.552 130.866 199.05C130.916 199.491 131.117 199.907 131.439 200.178C130.991 200.599 130.801 201.266 131.195 201.891C132.294 203.636 134.188 204.629 135.888 205.745L135.999 205.818C137.671 206.928 139.358 208.015 141.059 209.08C144.516 211.245 148.046 213.292 151.625 215.248C157.382 218.394 163.263 221.362 169.251 224.054C168.891 225.823 169.023 227.647 168.752 229.427L168.711 229.681C168.596 230.342 168.752 230.895 169.207 231.327L169.255 231.371L169.254 231.365L169.296 231.404L169.311 231.416L169.306 231.412C169.358 231.46 169.413 231.505 169.468 231.543L169.538 231.589V231.589C169.976 231.855 170.54 231.852 170.989 231.617L171.04 231.589L171.126 231.539C171.719 231.198 172.128 230.353 171.882 229.681C171.278 228.031 171.049 226.27 170.491 224.609L170.934 224.807V224.807L171.518 225.061C177.83 227.792 184.842 230.091 191.719 228.23C194.758 227.407 197.598 225.667 199.119 222.83C200.615 220.039 200.826 216.798 200.906 213.694C201.004 209.862 200.799 205.971 200.293 202.172C199.954 199.622 199.544 197.024 198.912 194.5C199.237 194.213 199.476 193.801 199.539 193.29C199.838 190.88 199.315 188.374 198.996 185.976C198.683 183.635 198.338 181.298 197.948 178.968C197.159 174.264 196.243 169.57 195.177 164.92C193.28 156.646 190.774 148.518 187.757 140.585L187.493 139.894C184.705 132.643 181.477 125.546 176.982 119.176C174.832 116.128 172.56 113.365 169.521 111.169C166.675 109.111 163.465 107.63 160.152 106.497C156.835 105.364 153.426 104.605 149.957 104.132C146.434 103.653 142.715 103.358 139.428 101.913C139.844 101.167 139.487 100.16 138.787 99.698C136.432 98.1416 134.255 96.1169 132.144 94.246ZM56.763 161.925C56.6644 161.775 56.4301 161.87 56.4734 162.047C57.6187 166.741 58.6938 171.444 59.3958 176.228C60.6631 184.861 60.43 193.608 60.3264 202.305L60.3212 202.755C60.268 207.44 60.194 212.125 60.0391 216.808C59.961 219.175 59.8063 221.564 59.8904 223.932C59.9363 225.217 60.2785 226.432 60.3998 227.701C60.506 228.811 60.4114 229.938 60.3584 231.049C60.3229 231.788 61.413 231.757 61.4872 231.049L61.582 230.134C61.7052 228.976 61.8574 227.826 62.2368 226.717C62.6929 225.384 62.9118 224.075 63.07 222.676C63.3124 220.531 63.4202 218.365 63.5137 216.205L63.5777 214.711C63.9683 205.686 63.9546 196.618 63.3222 187.602L63.276 186.958C62.6498 178.435 61.5632 169.227 56.763 161.925ZM81.1758 108.211C81.4749 108.088 81.3701 107.635 81.0389 107.714L80.4364 107.858C76.0221 108.916 71.6879 110.062 67.5676 112.03C63.4447 113.999 59.9542 116.939 57.1806 120.555C51.7891 127.582 49.5486 136.123 47.7799 144.656C45.8142 154.137 44.0246 163.653 42.0418 173.132L41.6736 174.897C39.839 183.725 38.1068 192.558 36.8305 201.491L36.7388 202.139C35.4517 211.324 34.6775 220.828 36.082 230.037C36.3598 231.859 39.3906 231.406 39.2721 229.606C38.9298 224.402 38.6848 219.225 38.9216 214.009C39.1587 208.792 39.6477 203.598 40.3768 198.427C40.9904 194.075 41.905 189.778 42.7144 185.461L42.8413 184.779C43.519 181.107 44.2177 177.439 44.9149 173.77L45.9567 168.278C47.5182 160.053 49.1102 151.822 50.9091 143.649L51.0159 143.168C52.7764 135.306 55.3718 127.07 60.6524 120.826C66.0112 114.489 73.6825 111.298 81.1758 108.211ZM100.648 191.609C100.519 191.322 100.068 191.354 99.9292 191.609C99.3862 192.612 99.3258 193.891 99.2232 195.022L99.2124 195.139C99.0818 196.52 98.9663 197.905 98.8955 199.29C98.7613 201.919 98.6971 204.545 98.7053 207.177C98.7138 209.875 98.7681 212.569 98.9134 215.263L98.9529 215.985C99.0856 218.326 99.3081 220.937 100.42 222.983C100.824 223.727 101.923 223.509 102.157 222.756C102.924 220.293 102.531 217.372 102.334 214.849L102.181 212.88C102.03 210.911 101.886 208.941 101.771 206.97C101.614 204.273 101.485 201.574 101.361 198.875C101.32 197.999 101.277 197.122 101.23 196.246L101.159 194.931C101.099 193.832 101.104 192.626 100.648 191.609ZM186.876 195.101L186.537 194.773C185.494 193.752 184.177 192.181 182.637 192.278C182.022 192.317 181.631 192.827 181.758 193.432C182.03 194.725 183.349 195.396 184.297 196.185C185.337 197.049 186.316 197.973 187.294 198.905C188.162 199.732 188.996 200.583 189.81 201.46L190.114 201.79C190.406 202.109 192.484 203.989 192.26 204.477L192.248 204.499C192.185 204.592 192.289 204.721 192.393 204.688C193.29 204.405 193.234 203.635 192.895 202.855C192.243 201.357 191.101 199.972 190.104 198.692C189.11 197.416 188.034 196.228 186.876 195.101V195.101ZM97.3956 157.532C98.0896 155.892 100.646 155.926 102.098 156.024C105.752 156.271 109.707 157.196 112.959 158.905C116.331 160.677 118.602 163.516 120.634 166.655L120.729 166.802C122.709 169.882 124.617 173.528 127.718 175.646C129.298 176.725 131.143 177.71 133.059 178.137C133.191 178.368 133.404 178.551 133.684 178.618L133.813 178.648C134.359 178.768 135.207 178.902 135.94 178.822C135.935 179.18 135.939 179.536 135.93 179.876C135.904 180.849 135.893 181.827 135.893 182.8C135.893 184.841 136.002 186.886 135.917 188.926C135.842 190.731 135.587 192.616 134.721 194.23C134.085 195.413 133.247 196.196 132.235 196.944C129.745 195.426 126.929 194.501 124.072 193.805C120.616 192.964 117.077 192.402 113.7 191.261C112.074 190.712 110.512 189.993 109.096 189.017C107.593 187.98 106.445 186.578 105.264 185.206L105.079 184.993C103.874 183.61 102.559 182.287 100.856 181.537C99.3889 180.891 97.4556 180.776 96.173 179.777C95.5024 179.254 95.4462 178.495 95.3757 177.718C96.1971 177.836 97.0666 177.648 97.8853 177.552L98.3095 177.502C99.0836 177.41 99.8399 177.309 100.602 177.112C100.744 177.075 100.744 176.862 100.602 176.825C99.7014 176.592 98.8088 176.493 97.8853 176.385L97.6684 176.358C96.833 176.248 95.9549 176.083 95.1354 176.267C94.9884 175.707 94.7761 175.173 94.4782 174.638C94.0601 173.886 93.2689 173.034 93.162 172.155C93.1301 171.893 93.1912 171.584 93.3147 171.352L93.3573 171.273C93.4093 171.18 93.4708 171.086 93.5609 171.028C93.5708 171.039 93.5919 171.053 93.6378 171.067C94.2684 171.266 94.8185 170.957 95.1105 170.481C96.35 170.635 97.7028 170.583 98.8652 170.634L100.04 170.691C101.296 170.749 102.609 170.774 103.789 170.52C103.954 170.485 104.004 170.211 103.839 170.14C102.388 169.519 100.628 169.321 99.075 169.083C98.2075 168.949 97.3337 168.848 96.4637 168.731C95.8844 168.652 95.2696 168.523 94.6694 168.492C93.1645 166.618 93.9754 163.662 96.0697 162.855C96.8326 163.19 97.5185 162.995 98.352 162.924C99.184 162.852 100.018 162.804 100.853 162.807C102.527 162.815 104.301 163.255 105.959 163.066C106.228 163.035 106.479 162.676 106.211 162.457C104.942 161.421 103.123 161.083 101.513 160.862L101.179 160.818C100.639 160.747 99.9824 160.644 99.3012 160.582C99.1472 160.281 98.8709 160.054 98.4557 159.998C98.3324 159.981 98.2083 159.971 98.0845 159.96L98.0864 159.948V159.948C97.074 159.9 97.118 158.189 97.3956 157.532ZM166.706 189.536C166.724 189.564 166.743 189.59 166.764 189.615L166.796 189.653L166.63 189.585L166.706 189.536V189.536ZM79.7289 153.866C83.9902 153.408 88.2576 153.504 92.5315 153.627C92.8733 154.746 94.0632 155.699 95.2161 155.735C94.3131 157.11 94.22 158.97 94.8531 160.429C93.5088 160.964 92.3507 161.926 91.6476 163.295C90.6726 165.194 90.8002 167.306 91.7638 169.061C90.9413 169.806 90.456 171.015 90.5046 172.155C90.5589 173.427 91.3163 174.512 91.9457 175.565C92.6257 176.703 92.6486 177.706 92.8575 178.98C93.1632 180.846 94.4211 181.978 96.0396 182.685L95.9536 183.023C95.5363 184.648 95.0171 186.363 93.8245 187.551C92.2903 189.079 89.9102 189.065 87.8832 189.162L87.7854 189.167C85.9293 189.259 84.074 189.368 82.2185 189.473L80.8269 189.551C78.6905 189.669 76.6389 189.683 74.8949 188.27C72.0476 185.964 70.0957 182.147 68.8602 178.768C66.2671 171.676 66.2361 163.893 67.4264 156.507C71.4183 155.22 75.5602 154.314 79.7289 153.866ZM115.167 165.632L115.135 165.634C114.258 165.734 113.655 166.445 113.441 167.288C113.129 168.514 113.282 169.622 112.532 170.728C111.76 171.865 111.285 172.776 111.173 174.181C111.127 174.76 111.148 175.336 111.02 175.902L110.926 176.299C110.827 176.722 110.746 177.129 110.795 177.583C110.84 177.997 111.042 178.32 111.457 178.452C112.81 178.885 113.854 177.888 114.204 176.627C114.506 175.538 114.103 174.239 114.529 173.216C114.764 172.649 115.2 172.175 115.446 171.604C115.689 171.039 115.812 170.447 115.851 169.832C115.925 168.669 114.896 167.271 115.47 166.217C115.592 165.993 115.454 165.625 115.167 165.632ZM133.136 153.628C132.22 153.442 131.18 153.015 130.277 153.369C129.813 153.552 129.583 154.118 129.975 154.512C130.657 155.195 131.647 155.233 132.564 155.394L132.645 155.409C133.73 155.61 134.816 155.8 135.905 155.981C137.952 156.32 140.004 156.62 142.064 156.875C144.179 157.137 146.3 157.37 148.424 157.545L149.246 157.613C151.041 157.756 152.908 157.864 154.668 157.59C154.924 157.55 154.883 157.177 154.668 157.112C152.74 156.528 150.624 156.371 148.63 156.124C146.51 155.861 144.394 155.583 142.283 155.253C140.176 154.924 138.071 154.571 135.974 154.18C135.026 154.004 134.08 153.82 133.136 153.628ZM100.082 151.753C100.886 151.468 101.77 151.046 102.641 151.187C104.143 151.431 105.48 152.895 106.669 153.859L106.072 153.743C103.017 153.156 98.972 152.523 96.4077 154.466C96.4011 154.455 96.396 154.443 96.3886 154.432C96.1816 154.118 95.9418 153.872 95.6801 153.603C95.6551 153.58 95.6309 153.555 95.607 153.53L95.4658 153.38L95.7888 153.268C96.4807 153.023 97.3003 152.708 97.4299 152.661L97.4389 152.658C98.3209 152.359 99.204 152.064 100.082 151.753ZM125.181 87.6979C125.306 86.0804 122.79 86.0937 122.665 87.6979C122.393 91.1999 123.181 94.6688 124.877 97.7391C124.889 97.7615 124.903 97.7814 124.916 97.8025C123.856 98.3546 122.783 98.8842 121.687 99.3576C120.284 99.9634 118.855 100.515 117.4 100.983C116.085 101.406 114.464 101.574 113.357 102.455C111.025 104.313 111.901 108.169 112.35 110.669L112.42 111.064C112.643 112.35 112.805 113.67 112.263 114.904C111.684 116.223 110.513 117.201 109.469 118.144L109.258 118.336C108.333 119.179 107.276 120.203 106.597 121.346C105.978 120.065 105.133 119.018 104.241 117.839C103.604 116.998 104.057 116.721 104.515 115.899C104.955 115.108 105.17 114.265 105.032 113.363C104.778 111.697 103.447 110.493 102.122 109.589C100.557 108.521 98.8105 107.73 97.1928 106.737C93.8688 104.697 90.6315 102.364 87.7149 99.7729C87.6345 99.7013 87.495 99.7951 87.5595 99.893C89.8633 103.399 92.5648 106.428 95.8849 108.999C97.2311 110.042 98.6453 110.907 100.069 111.816L100.478 112.079C101.05 112.449 101.763 112.944 102.021 113.575C102.281 114.209 101.727 114.688 101.428 115.213C100.48 116.882 100.938 118.439 102.062 119.854L102.114 119.919C103.231 121.296 104.077 122.576 104.482 124.335C105.352 128.113 104.14 132.049 102.872 135.596L102.822 135.735C102.136 137.647 101.407 139.545 100.811 141.488L100.647 142.025C100.107 143.812 99.6646 145.575 100.27 147.412C100.476 148.037 101.328 148.185 101.682 147.597C102.931 145.523 103.242 143.027 104.024 140.746C104.787 138.524 105.663 136.341 106.399 134.11C107.348 131.236 107.983 128.143 107.638 125.129C107.648 125.112 107.66 125.095 107.668 125.077L107.91 124.548C108.568 123.118 109.204 121.868 110.402 120.728C111.651 119.538 113.006 118.485 113.989 117.045C116.124 113.916 114.804 110.437 114.546 107.016L114.516 106.597C114.469 105.886 114.444 104.921 114.907 104.43C115.429 103.877 116.652 103.735 117.344 103.49C119.133 102.857 120.896 102.119 122.574 101.233C124.172 100.39 125.72 99.4584 127.162 98.367L127.892 97.8173C129.045 96.9473 130.24 95.9972 131.012 94.813C131.102 94.6766 130.95 94.4566 130.789 94.5219C129.499 95.0454 128.321 95.8782 127.114 96.6027C127.095 96.5585 127.074 96.5139 127.049 96.4691C125.556 93.7664 124.942 90.7719 125.181 87.6979ZM83.9871 106.215C83.4733 104.806 81.1316 104.915 81.225 106.589C81.2966 107.876 81.8426 109.037 82.3419 110.206L82.3952 110.331C82.9107 111.548 83.506 112.691 84.2184 113.806C85.5796 115.939 87.174 117.918 88.8771 119.785C90.421 121.479 92.4475 122.514 94.7826 122.342C95.7665 122.27 96.7597 122.019 97.6219 121.528C98.6459 120.943 99.758 119.189 101.064 119.614C101.191 119.655 101.309 119.47 101.199 119.382C99.6912 118.167 97.9793 120.051 96.5353 120.505C94.3595 121.189 92.1266 120.433 90.7261 118.673C89.2639 116.836 87.9181 114.779 86.6892 112.779C86.0651 111.763 85.4957 110.709 85.0039 109.622C84.5076 108.525 84.3948 107.334 83.9871 106.215ZM87.4944 97.5411C87.5578 97.3465 87.3161 97.1613 87.1452 97.2725C86.1541 97.918 85.2953 98.7707 84.3812 99.5183C83.3669 100.348 82.3452 101.16 81.3077 101.96C79.7952 103.126 81.5494 105.274 82.8808 104C84.7027 102.257 86.6982 99.9773 87.4944 97.5411ZM92.9356 90.7187C92.533 89.1655 90.1517 89.806 90.4987 91.3411L90.51 91.3878C91.1673 93.9234 90.2312 96.5047 88.2329 98.1484L88.1593 98.2081C86.8951 99.2203 88.6862 100.99 89.9379 99.9873C92.6707 97.7994 93.8075 94.0828 92.9356 90.7187Z" fill="black"/>
<path fill-rule="evenodd" clip-rule="evenodd" d="M72.4342 41.2743C73.2168 35.0139 75.675 28.367 78.2603 22.5306C84.0735 10.1907 97.382 8.49171 109.313 5.94748C121.086 4.2292 118.461 6.52896 130.056 9.95728C136.575 11.5583 134.585 16.3885 133.556 22.5306C132.969 26.3579 131.538 27.9102 130.056 31.4573C127.111 38.7417 144.564 47.712 144.56 55.5987C144.763 60.7527 145.488 66.6354 139.58 68.8185C133.958 71.6212 133.483 79.2188 126.444 83.5295C123.597 89.3097 115.843 89.8185 110.263 91.1593C106.735 91.836 103.168 92.3342 99.5914 92.6558C89.2346 93.9863 80.9493 90.9777 75.5278 81.7286C71.8998 76.0997 71.7667 69.2792 72.4342 62.4573C73.0989 55.2735 71.6377 48.4483 72.4342 41.2743Z" fill="#EDB98A"/>
<path fill-rule="evenodd" clip-rule="evenodd" d="M112.475 -0.0460613C104.917 -0.813263 97.5105 -0.168644 90.0622 1.16519C89.493 1.26854 89.1704 1.64284 89.0505 2.0928C85.5422 2.25343 82.0299 2.51149 78.5263 2.70382C77.2548 2.77356 76.534 4.033 77.1137 5.17027C77.2295 5.39621 77.3499 5.61601 77.4721 5.83582L77.3185 5.78505C76.2645 5.44607 75.126 5.27895 74.099 5.81701C72.7919 6.50178 72.2794 8.01273 72.5682 9.40341C72.6422 9.75848 72.7664 10.0988 72.9076 10.4308C72.6209 10.4118 72.3321 10.4181 72.0454 10.4561C70.519 10.659 69.3848 11.832 69.3047 13.3939C69.1866 15.7524 70.7024 18.1451 72.4881 19.8335C72.229 20.3685 72.1297 20.9983 72.2374 21.6366C72.4525 22.8983 73.3797 23.6539 74.4544 24.1468C74.0062 25.5736 73.7944 27.0653 73.9194 28.5898C73.9611 29.0987 74.4051 29.5191 74.8738 29.6222C73.1269 34.444 72.2427 39.6208 71.6069 44.6651C71.1536 48.254 70.9301 51.8639 70.9029 55.4799C70.8896 57.1124 70.9165 58.7468 70.9848 60.3797L71.0124 60.9919C71.0967 62.7569 71.1009 64.6102 71.4171 66.3562C70.3377 68.1968 69.9034 70.4817 69.72 72.5443C69.4923 75.0974 69.8528 77.7308 70.6563 80.1595C73.6879 89.3361 82.8373 95.1271 92.0273 96.6321C100.534 98.0249 110.377 96.1502 115.348 88.404C115.426 88.2814 115.26 88.1802 115.163 88.2605C111.606 91.16 107.481 92.4535 102.998 93.0833C95.2484 94.1699 86.5375 92.3267 80.3182 87.4405C77.333 85.0945 75.1805 81.6791 74.2337 78.0035C73.7509 76.1248 73.5844 74.1654 73.7743 72.2317C73.9683 70.2704 74.8346 68.5965 75.3806 66.7429C75.564 66.1171 75.37 65.5359 74.9884 65.1219C74.8811 63.6169 74.6279 62.0994 74.5312 60.599C74.4237 58.8932 74.3581 57.1876 74.3349 55.4799C74.2906 51.9377 74.4382 48.3891 74.7355 44.8619C75.2794 38.4028 76.7235 32.1005 77.571 25.6964C77.8849 25.9785 78.3346 26.0944 78.8061 25.8479L78.8549 25.8211L79.1121 25.6734C79.1269 25.6734 79.1437 25.6755 79.1587 25.6774C80.9189 25.8488 82.7446 25.6036 84.4312 25.0771C86.1959 24.5278 87.8338 23.6824 89.2971 22.5559C89.5752 23.9697 89.6914 25.3984 89.6933 26.8398C89.6954 27.7402 90.6462 28.2075 91.4009 27.8228C94.7467 26.1191 97.9427 24.1559 100.976 21.9494C101.331 23.7691 101.685 25.5886 102.041 27.4105C102.178 28.1123 103.07 28.3956 103.641 28.0616C105.914 26.7362 107.877 25.0013 109.475 22.9383C109.794 23.5499 110.114 24.1615 110.436 24.7717L110.921 25.6858C111.399 26.5841 112.04 27.5776 113.088 27.8649C114.197 28.1692 115.123 27.4487 115.496 26.4425C115.61 26.1299 115.715 25.8084 115.812 25.4851C116.757 27.6474 117.823 29.7609 119.029 31.7772C120.838 34.8014 123.01 37.4961 125.175 40.2606C125.832 41.0998 126.958 40.2986 127.049 39.483C127.101 39.0032 127.146 38.5213 127.184 38.0414C128.445 40.5936 129.762 43.122 131.196 45.5771L130.991 46.3838V46.3838C130.399 48.7674 129.908 51.1679 129.373 53.5642C129.201 54.3373 129.611 55.4427 130.512 55.5744C131.588 55.7316 132.607 56.283 133.709 55.9036C134.912 55.4898 135.149 54.4481 135.717 53.4606C135.83 53.2639 135.962 53.0832 136.103 52.9116L136.139 52.9585V52.9585C136.228 53.0749 136.439 52.9481 136.386 52.815L136.324 52.6611V52.6611C136.812 52.1422 137.396 51.7094 137.932 51.2438C139.207 51.0284 140.641 51.2643 141.52 51.7836C143.521 52.9669 144.439 55.4059 144.458 57.6485C144.482 60.2735 143.67 63.224 142.3 65.4685C141.697 66.4555 140.87 67.3472 139.778 67.7849C138.695 68.2201 137.52 68.085 136.418 68.4948C135.688 68.7677 135.239 69.5793 135.68 70.3146C135.709 70.3655 135.743 70.4118 135.775 70.4606L135.447 70.8969C135.221 71.1992 134.986 71.5228 134.767 71.8595C134.206 72.5065 133.616 73.13 133.045 73.7661C131.989 74.9389 130.964 76.1438 129.925 77.3335C128.944 78.456 127.907 79.5104 126.838 80.5481C125.828 81.5311 124.567 82.3573 123.64 83.4058C122.738 84.4287 122.493 86.2144 123.977 86.8064C125.619 87.4629 127.073 85.9243 128.179 84.8985L128.225 84.8555C130.252 82.9861 132.082 80.8497 133.535 78.4976C134.974 79.48 137.056 79.5738 138.49 78.5917C139.244 78.0749 139.823 77.2065 140.104 76.2617C140.369 76.3213 140.634 76.3562 140.893 76.3522C141.026 76.4296 141.159 76.5048 141.294 76.575C142.363 77.1327 143.676 76.8835 144.165 75.6977C144.611 74.6211 144.152 73.3985 143.751 72.3612L143.668 72.147C143.44 71.5554 143.189 70.9108 142.877 70.3042C143.746 69.649 144.488 68.8351 145.116 67.9096C147.227 64.7922 148.281 60.2331 147.815 56.5136C147.534 54.2691 146.483 51.9442 144.76 50.4307L144.823 50.2659V50.2659C145.306 49.0381 145.745 47.8058 146.029 46.5083C146.362 44.9908 146.525 43.4183 146.672 41.8734C146.984 38.6101 146.9 35.2729 146.484 32.0223C145.704 25.9037 143.727 19.8972 140.217 14.8057C141.212 13.6114 142 12.2059 141.589 10.5893C141.402 9.84725 140.974 9.14366 140.328 8.71863C139.972 8.48425 139.548 8.44832 139.192 8.25388L139.085 8.19474C138.929 8.10319 139.048 8.11289 139.142 7.68746C139.51 5.98799 139.205 4.34601 137.339 3.7817C135.583 3.25121 133.922 4.37771 132.882 5.71979C130.163 3.78572 126.579 2.77356 123.427 1.91337C119.843 0.938831 116.166 0.330354 112.475 -0.0460613ZM141.851 56.9551C141.864 55.5707 140.554 54.7169 139.266 54.9432C138.401 55.0941 137.679 55.6117 137.002 56.1467L136.671 56.4087C135.846 57.0582 134.899 57.7583 134.407 58.6778C133.686 60.0346 135.21 61.8605 136.633 60.9094C137.609 60.2536 138.235 59.2028 138.875 58.2266L138.941 58.1259C139.232 57.6884 139.487 57.2235 139.886 56.8726L139.972 56.797C140.103 56.6851 140.244 56.5829 140.413 56.5345C140.74 56.4404 141.344 56.5721 141.488 56.9617L141.501 57.0016C141.554 57.1983 141.849 57.1558 141.851 56.9551Z" fill="black"/>
<path fill-rule="evenodd" clip-rule="evenodd" d="M92.2847 78.8875C93.7049 78.3079 94.9721 77.3411 95.8985 76.1061C96.2206 75.6767 96.3041 75.2233 96.2365 74.8086C96.1606 74.3424 95.8848 73.9198 95.5088 73.6363C95.1315 73.352 94.6597 73.2117 94.2035 73.2832C93.8071 73.3453 93.4125 73.5625 93.1002 74.0128L93.0349 74.1028C92.4842 74.8482 91.7664 75.4599 90.9487 75.8541C90.1605 76.234 89.2789 76.4114 88.3667 76.3082C86.6292 76.1119 85.4317 75.1719 84.1589 73.8954C84.0011 73.7343 83.8432 73.5681 83.6846 73.3992C83.5844 73.2461 83.4454 73.1477 83.291 73.0961C83.1196 73.0387 82.9258 73.042 82.7482 73.104C82.5769 73.1638 82.4238 73.2771 82.3211 73.4279C82.2235 73.5712 82.1682 73.7483 82.1862 73.952C82.3027 75.2748 82.994 76.4554 83.976 77.3825C85.0667 78.412 86.5125 79.1243 87.8736 79.3741C89.3731 79.6493 90.9011 79.4521 92.2847 78.8875V78.8875ZM87.1658 58.4799C85.5704 59.45 83.1396 61.7121 84.8558 64.1171C86.876 66.2377 89.7846 63.8063 91.2179 62.7067C92.5469 61.8545 94.0402 64.0463 92.8071 65.0414C82.45 72.7124 78.2468 58.7335 86.3589 57.3393C87.252 57.1856 87.5837 58.1798 87.1658 58.4799ZM105.726 49.5564C105.55 47.3676 102.218 46.8706 101.886 49.0365C101.589 50.9767 101.939 52.759 102.812 54.5058C103.647 56.1746 105.745 55.3961 105.904 53.8764C106.116 51.8395 105.836 50.918 105.726 49.5564ZM80.3602 48.5874C79.8957 47.9787 79.2249 47.5632 78.4212 47.798C75.9103 48.532 76.6504 52.0981 77.5322 53.834C78.0114 54.7766 79.5602 55.0156 80.2601 54.1857C81.4009 52.8322 81.9473 50.1292 80.4969 48.796C80.4576 48.7271 80.4139 48.6576 80.3602 48.5874ZM102.848 39.9788L102.451 39.9094C101.224 39.6971 99.6984 39.4931 98.8304 40.4799C98.3701 41.0032 98.2116 41.9759 98.8304 42.4768C99.9189 43.3581 101.122 43.0166 102.427 43.0912C103.502 43.1529 104.535 43.3308 105.57 43.6269C107.842 44.2764 109.693 45.4621 111.633 46.764C111.887 46.9348 112.147 46.6091 112.026 46.3709C110.906 44.1765 108.735 42.3739 106.561 41.275C105.401 40.6885 104.131 40.202 102.848 39.9788ZM82.6492 38.9959L82.3457 39.058C79.042 39.7488 74.7498 41.1288 73.1854 44.375C73.1258 44.8341 73.1887 44.9324 73.24 44.9967L73.257 45.0181C73.2992 45.073 73.3329 45.1487 73.5318 45.2111C73.587 45.198 73.6427 45.184 73.699 45.1693C74.4162 44.9813 74.9835 44.7223 75.5328 44.4535L76.1284 44.16C76.8193 43.8211 77.5164 43.4945 78.2551 43.2534C79.8316 42.739 81.4532 42.3766 83.0999 42.1831C83.4568 42.1412 83.8005 42.0207 84.0716 41.8142C84.329 41.6181 84.5256 41.3467 84.6152 40.986C84.7314 40.5191 84.698 40.1656 84.4476 39.7444C84.2593 39.4281 83.9899 39.2088 83.6806 39.0829C83.3652 38.9546 83.0061 38.9243 82.6492 38.9959Z" fill="black"/>
<path fill-rule="evenodd" clip-rule="evenodd" d="M107.607 79.5561C105.897 75.5474 102.164 72.6012 97.8655 71.524C94.7091 70.7351 91.3966 70.7602 88.179 71.0734C86.4933 71.2363 84.6851 71.3698 83.0964 71.9961C81.7397 72.5311 80.6341 73.5425 79.8028 74.7296C78.8133 76.1364 78.1403 77.7465 77.6677 79.3968C77.6006 79.6314 77.5375 79.8678 77.4786 80.1054C77.6841 81.3505 78.1204 82.4103 79.2733 83.1931C80.3983 83.9575 81.7406 84.2702 83.0786 84.3813C83.2099 84.3183 83.3367 84.2535 83.4529 84.1871C85.5381 82.9929 87.0057 80.1709 89.6376 80.5528C91.9863 80.8939 93.5324 83.8503 94.9292 85.5839C99.4126 86.1065 103.893 84.7588 107.541 82.194C107.726 81.3162 107.737 80.431 107.607 79.5561M74.4315 76.5151C74.7902 75.5082 75.2419 74.5331 75.7774 73.6144C77.5476 70.5764 80.2651 68.1557 83.4911 66.772C91.1225 63.5032 100.997 65.8074 107.16 71.1686C109.265 73.0012 111.394 75.6944 112.037 78.5913C112.229 78.6294 112.411 78.7295 112.56 78.8704C117.013 76.0659 121.598 73.3677 125.186 69.4802C127.792 66.6556 129.604 63.313 130.714 59.6398C130.805 59.3374 131.292 59.3817 131.278 59.7162C131.273 59.7944 131.269 59.8725 131.265 59.9508C131.311 59.8069 131.531 59.881 131.548 60.0206C132.145 64.4828 132.892 69.2136 132.204 73.699C131.792 76.3755 130.577 78.3349 128.953 80.4506C127.212 82.7185 125.241 84.8279 123.226 86.8508C121.948 88.1349 120.612 89.6159 119.047 90.5574C117.226 91.6513 115.16 92.483 113.217 93.327C111.24 94.1881 109.234 94.9836 107.189 95.6733C103.102 97.057 98.8784 98.0134 94.5806 98.4323C91.1394 98.7666 87.2066 99.1307 83.9089 97.8356C81.3812 96.8434 79.341 95.0494 77.7227 92.8911C75.961 90.5405 74.5682 87.863 73.7983 85.0395C72.9983 82.1066 74.2629 76.988 74.4315 76.5151" fill="black"/>
</svg>
