<svg width="391" height="800" viewBox="0 0 391 800" fill="none" xmlns="http://www.w3.org/2000/svg">
<path fill-rule="evenodd" clip-rule="evenodd" d="M116.783 718.54C115.35 712.757 117.459 708.144 123.516 704.737C124.037 703.361 135.742 698.899 145.043 692.349C153.4 686.465 159.461 678.386 159.715 677.938C159.715 677.938 161.594 673.576 161.808 671.607C162.835 662.164 162.241 655.974 162.875 653.037C158.602 652.477 148.095 375.464 149.794 366.283C147.011 365.672 144.059 365.028 141.406 363.462C141.194 363.408 141.542 362.794 141.532 362.679C134.876 349.637 145.087 305.289 151.487 293.011C146.405 292.878 139.71 292.189 136.564 287.953C135.074 287.464 134.135 286.612 133.412 285.242C132.58 283.937 131.808 282.569 131.112 281.166C127.726 274.145 125.637 266.349 126.766 258.614C126.551 258.546 125.442 258.539 125.387 258.229C125.278 256.328 125.628 254.652 126.201 252.856C132.016 232.626 139.015 212.709 148.268 193.664C152.904 183.47 162.497 179.75 172.437 175.923C177.218 174.048 182.002 171.884 186.992 170.656C187.055 170.308 186.757 169.248 187.411 169.334C188.219 169.502 188.06 170.798 188.359 171.526C199.898 162.098 192.581 157.24 199.539 152.076C206.738 148.346 215.519 148.195 223.457 149.002C226.385 149.087 228.729 150.404 229.419 153.346C231.937 159.434 237.835 163.914 244.27 165.288C244.802 164.343 246.264 161.634 247.083 162.489C256.376 162.806 270.467 166.211 279.166 168.758C287.899 170.984 296.733 175.048 299.017 184.518C303.163 201.393 296.568 270.744 285.75 284.1L285.398 284.106C283.481 286.065 280.874 287.5 277.92 288.463C277.986 294.707 279.958 300.803 280.939 306.909C283.149 317.983 284.847 329.07 287.308 340.203C287.319 341.444 292.002 358.418 287.385 355.014C286.432 355.482 285.265 355.992 284.239 356.429C289.143 367.585 291.388 385.585 291.04 399.367C290.953 407.574 291.293 414.763 293.138 423.168C306.785 494.38 318.817 653.66 319.1 655.789C319.36 657.824 317.633 668.871 319.1 671.785C320.401 674.372 325.954 672.845 327.016 673.843C329.774 678.326 328.511 681.183 330.774 685.66C331.934 686.696 334.529 688.963 335.38 690.556C337.103 692.212 365.638 710.901 364.482 713.737C364.482 713.737 364.612 715.097 364.656 715.393C367.089 729.521 363.037 729.403 349.93 731.482C330.784 734.852 316.474 728.367 300.292 719.702C294.915 716.083 287.272 709.173 289.76 700.989C289.828 700.488 291.304 691.88 291.889 687.509C291.889 687.509 290.303 684.009 296.441 684.445C295.432 683.34 293.214 669.015 293.971 667.12C294.451 662.239 293.705 657.808 293.941 652.784C291.37 652.975 246.231 439.391 217.918 426.119C217.743 427.537 218.083 430.178 216.196 430.443C207.439 498.632 186.383 651.39 185.416 651.658C186.867 659.445 186.823 677.496 186.85 685.226C187.072 685.433 188.092 686.341 188.256 686.562C188.29 686.505 188.954 687.167 188.988 687.184L189.078 686.979C192.06 693.691 196.407 700.604 192.565 707.182C195.416 706.975 194.959 712.451 195.086 714.971C193.462 719.902 147.294 733.208 136.977 733.839C133.587 734.43 117.8 729.418 114.762 728.698C110.826 727.964 114.688 720.661 116.783 718.54Z" fill="#EDB98A"/>
<path fill-rule="evenodd" clip-rule="evenodd" d="M187.956 686.282C188.832 689.55 187.241 691.184 183.184 691.184C177.098 691.184 173.24 681.85 170.23 680.78L169.06 680.357C167.301 679.713 164.316 678.598 160.106 677.013C159.983 677.312 159.852 677.621 159.715 677.939C159.461 678.386 153.4 686.465 145.044 692.349C135.742 698.899 124.037 703.361 123.516 704.738C117.459 708.144 115.35 712.757 116.784 718.54C114.688 720.662 110.826 727.964 114.763 728.698C117.801 729.419 133.587 734.43 136.977 733.84C147.294 733.208 193.462 719.902 195.086 714.971L195.076 714.736C194.983 712.127 195.331 706.981 192.565 707.182C196.33 700.735 192.231 693.967 189.258 687.382L189.078 686.979L188.988 687.184C188.954 687.167 188.29 686.505 188.256 686.563C188.214 686.506 188.117 686.405 187.991 686.282L187.956 686.282ZM310.265 680.245L310.223 680.385C309.521 682.802 307.601 691.184 305.336 691.184C303.795 691.184 301.894 690.231 299.632 688.325L299.371 688.084C297.385 686.267 295.782 685.043 294.562 684.411C291.904 684.544 291.013 685.576 291.889 687.509L291.815 688.053C291.188 692.556 289.826 700.509 289.76 700.989C287.272 709.173 294.915 716.083 300.292 719.702C316.474 728.367 330.784 734.853 349.93 731.482L351.086 731.3C363.275 729.398 367.016 729.097 364.656 715.393L364.639 715.267C364.586 714.826 364.482 713.737 364.482 713.737C365.638 710.901 337.103 692.212 335.38 690.556C334.529 688.963 331.934 686.696 330.774 685.66C328.511 681.183 329.774 678.326 327.016 673.843C326.27 673.142 323.309 673.687 321.161 673.177C317.539 673.769 310.909 678.102 310.265 680.245Z" fill="white"/>
<path fill-rule="evenodd" clip-rule="evenodd" d="M244.544 164.803L244.271 165.288C237.719 184.366 226.98 194.634 212.055 196.09C197.13 197.546 189.43 192.769 188.955 181.758L187.296 169.331C186.795 169.382 187.052 170.33 186.993 170.656C182.002 171.884 177.219 174.049 172.437 175.924L170.949 176.498C161.551 180.139 152.673 183.98 148.268 193.664C139.016 212.709 132.016 232.626 126.201 252.856C125.629 254.652 125.279 256.328 125.388 258.23C125.443 258.539 126.551 258.546 126.767 258.614C125.637 266.35 127.726 274.145 131.112 281.166C131.808 282.569 132.581 283.938 133.413 285.242C134.136 286.612 135.075 287.464 136.564 287.953C139.711 292.189 146.405 292.879 151.487 293.011C145.087 305.289 134.876 349.637 141.533 362.679C141.543 362.794 141.398 366.126 141.61 366.181C144.263 367.747 149.039 368.651 151.822 369.262L156.809 369.973C156.63 371.197 149.568 372.118 149.663 379.162L287.428 383.245C286.444 373.451 286.513 366.883 283.391 359.781L287.191 358.359C288.099 357.969 286.569 355.416 287.385 355.015C292.002 358.418 287.319 341.444 287.308 340.203C284.847 329.07 283.149 317.984 280.94 306.909C279.959 300.803 277.987 294.707 277.92 288.463C280.813 287.521 283.372 286.124 285.278 284.228L285.399 284.106L285.75 284.1C296.568 270.744 303.163 201.393 299.018 184.518C296.733 175.048 287.899 170.984 279.167 168.758L278.638 168.604C269.906 166.076 256.191 162.799 247.083 162.489C246.379 161.753 245.198 163.656 244.544 164.803ZM232.881 239.426C239.978 239.426 247.52 240.261 255.507 241.933L256.762 243.696L255.507 254.316C250.593 253.804 245.418 254.491 239.98 256.377L239.721 256.468C234.188 258.423 230.234 259.923 227.857 260.969L219.244 268.207L222.006 281.131L221.34 281.162C210.551 281.646 204.488 281.105 203.149 279.54C201.784 277.942 201.178 276.326 201.332 274.69L201.597 274.059C205.875 263.823 207.744 257.242 207.205 254.316C206.655 251.331 206.655 248.991 207.205 247.297L207.804 246.985C217.568 241.945 225.927 239.426 232.881 239.426Z" fill="#F2994A"/>
<path fill-rule="evenodd" clip-rule="evenodd" d="M227.499 151.689C226.005 151.643 225.719 153.519 226.741 154.297L226.783 154.328C227.654 154.945 228.062 155.496 228.535 156.48C230.839 162.566 237.337 166.057 243.693 164.765C241.485 168.874 240.003 172.852 237.793 176.892C227.618 197.811 194.202 204.616 190.206 175.914C196.329 174.733 199.958 160.992 196.029 156.892L195.923 157.391C194.79 162.773 194.015 168.284 189.927 172.342C189.803 172.378 189.684 172.389 189.566 172.389C189.411 171.653 189.231 170.924 189.008 170.209C188.463 168.465 185.74 168.793 185.817 170.68C177.663 173.159 169.827 176.672 162.028 180.065C155.544 182.887 150.243 187.937 147.223 194.331C138.754 211.821 132.288 230.283 126.651 248.856C126.273 251.366 122.058 260.695 125.459 261.592C124.625 269.276 126.758 277.049 130.055 283.949C131.584 286.542 132.664 290.136 135.736 291.218C138.927 295.217 144.76 296.254 149.617 296.537C143.085 311.883 134.21 350.974 140.211 366.223C139.679 368.725 146.595 369.913 148.445 370.485C146.954 379.38 147.279 388.542 147.922 397.501C153.945 473.916 155.088 550.751 148.751 627.185C148.379 631.949 147.977 636.713 147.552 641.475L147.295 644.33C146.958 648.131 146.671 651.918 146.759 655.75C146.787 657.08 147.892 657.878 148.996 657.947C152.705 660.309 157.687 660.328 161.977 660.898C161.219 665.026 160.795 671.467 159.468 674.941C156.707 674.221 154.928 676.79 157.68 678.24C154.292 680.116 152.55 683.707 149.838 686.228C142.39 683.209 141.003 687.72 147.089 688.749C145.434 690.127 143.678 691.401 141.862 692.61L141.733 692.592C139.585 692.267 135.537 690.495 134.521 692.842C134.064 694.541 136.166 695.081 137.688 695.287C136.337 696.137 134.982 696.983 133.626 697.827C132.44 697.306 131.264 696.655 130.054 696.237C127.077 695.576 126.82 699.432 130.705 699.65C128.271 701.445 124.911 700.411 123.355 702.943C117.662 705.237 114.971 712.166 116.3 717.703C114.301 719.477 112.898 722.136 112.736 724.808C112.35 727.671 114.633 730.364 117.726 731.118C121.209 732.275 124.743 733.331 128.267 734.324L128.636 734.451C131.541 735.439 134.712 736.324 137.733 736.151C155.647 735.085 179.535 727.741 193.873 718.603C197.449 715.92 198.075 709.286 193.153 707.164C195.421 703.06 194.337 700.079 193.376 695.609C192.708 692.694 191.802 689.703 190.161 687.006C190.015 686.767 189.665 686.839 189.646 687.075C189.431 690.124 189.716 693.244 189.944 696.315L189.969 696.656C190.173 699.488 190.632 700.531 189.863 703.212C188.02 710.053 170.256 713.469 163.275 716.291C157.795 717.985 152.231 719.502 146.59 720.836L146.176 720.925C141.413 721.971 136.509 723.554 131.493 722.732C128.892 720.844 124.987 721.375 122.431 719.214C118.576 715.059 121.607 708.968 124.309 705.192C126.921 706.024 129.154 703.786 131.077 702.602L131.149 702.559C133.112 701.319 135.071 702.187 137.038 700.951L137.482 701.034C144.708 702.409 150.303 703.977 138.778 699.863C140.676 698.679 142.579 697.485 144.423 696.229C148.208 696.685 152.355 698.668 155.873 698.849C153.505 696.647 150.276 695.428 147.232 694.218C149.004 692.875 150.69 691.438 152.198 689.857L153.639 690.216C162.489 692.41 165.968 693.043 154.053 687.694C156.396 685.098 156.777 681.252 159.353 678.81C163.497 679.676 167.304 681.495 170.678 683.843C172.043 684.818 173.071 686.036 174.151 687.256C179.273 693.832 187.207 694.847 189.631 686.317C189.673 686.142 189.398 686.034 189.32 686.182L189.312 686.202C188.152 688.822 184.412 690.946 181.287 689.318L181.193 689.267C178.138 687.678 176.718 684.436 174.312 682.227C171.064 679.301 166.993 677.339 162.792 675.866C163.811 672.152 164.154 665.392 164.039 661.035C171.111 661.369 178.23 661.028 185.178 659.687C184.064 667.786 184.796 678.326 184.285 685.549C183.545 687.972 188.044 689.487 188.522 687.073C188.787 679.258 188.021 667.986 186.828 659.265L187.327 659.144C187.798 659.027 188.293 658.886 188.697 658.658C193.156 659.162 191.94 647.855 192.688 644.675C197.718 574.548 208.315 505.05 217.319 435.385C218.568 434.908 218.79 433.378 218.996 432.1C230.343 439.766 232.605 455.085 237.684 466.96C259.867 528.444 269.779 593.312 285.153 656.627L285.069 656.649C285.008 656.667 285.008 656.676 285.134 656.667L285.163 656.665V656.67C284.213 656.795 283.465 657.791 284.044 658.718C285.775 662.204 290.573 660.97 293.732 660.748C293.425 666.118 294.577 677.703 293.847 682.487C289.951 682.558 289.703 686.838 289.187 689.382L289.147 689.643C288.459 693.989 286.145 702.139 287.874 705.653C285.202 708.826 287.124 713.137 289.896 715.303C292.864 717.492 296.559 718.775 299.914 720.461C315.707 726.829 330.986 739.106 350.339 734.382L351.182 734.204C364.746 731.344 368.643 730.073 365.949 716.675C367.055 713.952 367.062 710.97 365.506 708.562C362.73 705.007 358.066 703.062 354.355 700.361C348.07 696.147 341.38 692.46 335.24 688.073C335.469 687.875 335.152 687.803 334.966 687.836C330.633 684.451 331.038 678.59 328.016 674.408C327.26 672.253 323.442 671.728 320.929 672.027C321.714 668.011 317.877 649.729 317.39 662.642L317.39 662.828C317.381 664.821 317.054 671.476 317.642 672.78C309.298 675.324 307.499 683.324 305.713 689.784L305.598 689.815C305.028 689.962 304.265 690.08 303.98 690.639C301.296 688.937 300.547 685.587 297.948 683.784C298.677 683.215 298.715 682.129 298.343 681.288C297.133 676.859 296.408 665.588 294.579 660.642C303.169 659.357 311.92 658.704 320.309 656.373C321.399 657.442 323.636 657.063 323.548 655.134C320.95 613.097 316.482 571.191 310.849 529.457C306.217 490.392 298.069 451.824 292.394 412.964L292.346 407.63C292.193 391.597 291.764 375.324 285.773 360.229C286.301 359.999 286.823 359.762 287.338 359.513C293.834 362.2 288.716 345.873 288.477 342.93C285.285 325.869 281.525 308.811 279.128 291.644C281.641 290.737 283.961 289.45 285.897 287.58C297.633 278.045 304.437 200.829 300.171 185.303C297.945 175.537 288.51 170.739 279.517 168.532L278.189 168.157C268.146 165.338 257.928 162.783 247.472 162.155C247.099 161.818 246.004 161.915 245.861 162.196C245.206 162.59 244.584 163.358 244.058 164.17C229.544 162.505 233.47 153.037 227.499 151.689ZM192.777 707.781C194.809 712.387 192.109 715.89 187.582 717.827C171.906 725.08 154.405 730.909 136.439 732.023C130.957 730.699 125.527 728.513 119.972 727.16L119.733 727.117C117.777 726.758 116.859 726.399 117.026 724.372L116.955 723.552C116.83 722.096 116.724 720.642 116.826 719.187C118.535 723.265 123.65 725.507 128.134 726.33C135.244 729.698 143.207 726.274 150.193 724.831C161.539 721.388 186.086 715.978 192.777 707.781ZM291.258 707.878L291.493 707.949C293.528 708.578 295.597 709.348 297.878 708.781C308.066 712.228 317.983 716.137 327.825 720.208C338.445 725.282 355.544 731.181 364.747 718.918C363.424 725.35 365.295 727.55 356.508 729.155C342.567 733.692 331.364 731.368 319.796 725.169C311.32 721.056 302.204 717.787 294 713.317L293.889 713.239C292.275 712.089 290.328 709.992 291.258 707.878ZM312.42 680.188C315.08 675.291 322.239 672.601 327.562 674.407C328.104 679.13 326.701 684.418 329.706 688.52C327.045 688.985 324.392 689.522 321.744 690.077L319.32 690.588C318.13 690.848 316.617 691.294 316.815 692.553C317.035 693.945 318.865 693.519 320.083 693.169L320.555 693.031C323.976 692.026 327.391 691.001 330.769 689.853C332.549 691.808 334.939 693.342 337.256 694.823L336.295 694.932C332.927 695.309 329.527 695.652 326.199 696.333C324.745 696.763 325.059 698.741 326.547 698.583C330.519 697.548 334.482 696.379 338.522 695.637C340.498 696.94 342.464 698.25 344.444 699.547C340.549 700.11 336.638 700.16 332.746 700.492C330.226 700.724 330.227 704.161 332.746 703.963C337.293 703.547 341.837 702.204 346.166 700.679L348.447 702.176C351.11 703.922 353.779 705.663 356.474 707.368C358.096 708.399 360.191 709.38 361.324 710.873C364.903 716.642 355.96 722.155 349.917 722.064C340.739 722.161 333.094 717.405 325.054 714.558C320.607 713.459 297.995 702.162 295.938 705.135C294.644 704.515 292.845 704.291 291.913 703.27C291.725 698.546 292.722 693.597 293.559 688.832C293.73 688.001 294.137 687.003 294.183 686.15C297.949 687.536 299.022 692.783 303.98 692.336C304.755 693.573 307.145 692.997 308.223 692.015C309.397 690.946 309.544 689.441 309.824 688.1L309.954 687.484C310.48 685.014 311.111 682.484 312.42 680.188ZM200.809 279.54L201.415 279.692C207.584 281.233 214.038 282.348 220.378 281.934C221.474 286.072 220.902 295.916 225.36 297.489C226.883 298.062 229.175 297.597 229.873 296.045C239.094 295.881 248.38 295.059 257.601 294.512C264.543 293.967 271.745 293.988 278.427 291.885C277.618 295.954 277.339 299.949 277.792 304.11C279.351 321.858 284.482 339.149 286.202 356.821L286.281 357.662L286.331 357.634C286.331 357.667 286.334 357.7 286.336 357.733C285.835 357.878 285.334 358.03 284.835 358.184C284.657 358.094 284.415 358.181 284.287 358.352C247.562 369.752 208.582 374.703 170.306 369.686C163.603 368.851 156.948 367.681 150.34 366.294C150.398 365.704 149.496 365.55 149.338 366.107C147.872 365.852 146.405 365.572 144.947 365.384C145.123 364.889 145.154 364.353 144.973 363.87C142.128 355.352 143.428 345.64 144.325 336.806C145.469 323.243 148.321 309.938 150.625 296.558C161.532 296.064 172.373 294.287 183.332 294.51C184.487 297.496 188.511 300.004 191.662 298.297C193.887 297.098 194.545 294.483 195.438 292.323C197.204 288.052 199.006 283.796 200.809 279.54ZM247.022 162.56C258.475 165.936 270.208 168.348 281.557 172.095C290.989 174.441 297.427 180.347 297.825 190.419C298.603 211.994 296.233 233.679 292.655 254.941L292.469 255.901C290.484 266.149 288.705 276.575 284.956 286.342C279.484 288.881 273.271 289.604 267.284 289.898C258.547 290.342 249.811 290.798 241.082 291.368L234.238 291.811C232.253 291.939 229.492 291.6 227.999 293.141C227.867 293.358 227.598 293.331 227.394 293.466L227.354 293.495C227.136 293.643 226.917 294.001 226.603 293.932C226.092 293.774 225.896 292.758 225.776 292.273L225.765 292.229C225.1 289.633 224.619 286.982 224.005 284.372C222.606 279.238 222.003 273.81 219.876 268.895C222.921 266.956 225.788 264.739 228.247 262.109L231.212 261.067C238.305 258.583 245.478 256.176 252.871 254.688C253.048 256.307 255.377 257.233 256.246 255.538C257.685 251.22 257.952 246.532 258.945 242.082C261.199 228.804 263.876 215.575 265.435 202.192C261.138 214.045 258.911 228.594 255.627 241.405C255.475 241.316 255.264 241.368 255.258 241.577C243.629 237.189 230.719 237.367 219.244 242.025C216.369 243.175 213.45 244.208 210.591 245.395C209.614 245.946 207.669 245.912 207.341 247.115C206.99 246.298 206.517 245.534 205.89 245.018C205.695 244.615 203.472 243.897 203.255 244.693C190.218 246.479 177.542 252.139 164.128 251.183C165.716 245.4 165.528 239.154 165.634 233.181L165.602 232.509C165.326 226.625 165.126 219.342 163.128 214.5C164.406 226.69 163.478 238.9 161.917 250.977C152.456 249.759 156.812 255.158 163.114 254.955C175.831 255.87 187.568 250.256 199.272 246.166C205.665 243.615 206.389 245.776 206.104 251.837C206.098 259.73 202.517 266.933 199.273 273.935L197.815 277.206C195.393 282.648 193.004 288.055 190.65 293.563C180.368 290.16 168.791 292.027 158.138 292.647C150.01 293.666 144.174 293.304 137.298 288.612C134.817 283.883 131.549 279.397 130.271 274.063C128.789 269.174 128.295 264.053 127.863 258.986L128.253 257.569C133.264 239.379 138.81 221.277 146.389 203.952L146.799 202.997C149.368 196.997 151.978 190.7 157.176 186.497C165.9 180.069 176.689 177.218 185.859 171.498L185.918 171.916C186.849 178.478 188.456 185.28 192.664 190.559C200.44 200.087 215.12 200.355 225.07 194.167C235.421 188.455 241.632 177.821 244.653 166.705L244.688 166.583C244.971 165.592 245.759 162.592 247.022 162.56ZM218.911 269.496C218.917 272.99 219.608 276.435 220.076 279.884C214.694 278.824 209.329 278.085 204.036 276.652C209.192 274.708 214.202 272.366 218.911 269.496ZM231.868 241.314C239.715 239.781 247.749 240.698 255.508 241.933C254.665 245.845 253.702 249.721 252.897 253.637C250.118 253.51 223.76 258.169 226.735 261.908C222.844 263.985 219.158 266.426 215.285 268.547C211.39 270.681 207.335 272.515 203.151 274.004L203.371 273.514C206.972 265.486 210.336 256.452 207.562 247.678C211.293 249.172 216.385 245.962 220 244.761C223.837 243.225 227.789 242.012 231.868 241.314ZM288.36 210.228C288.334 208.764 283.801 212.963 283.209 213.399L282.852 213.722C278.502 217.662 274.205 221.995 271.782 227.401C271.604 232.714 279.538 219.844 280.638 219.058C283.037 215.975 285.961 213.298 288.36 210.228ZM162.93 222.733C164.156 223.136 160.809 218.985 159.504 219.288C158.984 219.212 158.532 219.964 159.109 220.222L159.395 220.348C160.735 220.928 162.104 221.423 162.93 222.733Z" fill="black"/>
<path fill-rule="evenodd" clip-rule="evenodd" d="M173.161 104.237C174.014 97.3938 176.695 90.1277 179.515 83.7475C185.856 70.258 200.373 68.4008 213.386 65.6195C226.228 63.7411 223.365 66.2551 236.013 70.0029C243.124 71.753 240.953 77.0333 239.831 83.7475C239.19 87.9314 237.629 89.6283 236.013 93.5059C232.8 101.469 251.837 111.275 251.833 119.896C252.054 125.531 252.846 131.961 246.401 134.348C240.269 137.412 239.751 145.717 232.072 150.429C228.967 156.748 220.51 157.304 214.423 158.77C210.575 159.51 206.684 160.054 202.783 160.406C191.486 161.86 182.449 158.571 176.535 148.461C172.578 142.307 172.433 134.851 173.161 127.394C173.886 119.541 172.292 112.08 173.161 104.237Z" fill="#EDB98A"/>
<path fill-rule="evenodd" clip-rule="evenodd" d="M216.835 59.0666C208.591 58.2279 200.513 58.9326 192.389 60.3907C191.768 60.5037 191.416 60.9129 191.285 61.4047C187.458 61.5803 183.627 61.8624 179.806 62.0727C178.419 62.1489 177.632 63.5257 178.265 64.7689C178.391 65.0159 178.522 65.2562 178.656 65.4965L178.488 65.441C177.339 65.0704 176.097 64.8877 174.976 65.4759C173.551 66.2245 172.992 67.8762 173.307 69.3964C173.387 69.7846 173.523 70.1566 173.677 70.5195C173.364 70.4987 173.049 70.5057 172.736 70.5473C171.072 70.7691 169.834 72.0513 169.747 73.7587C169.618 76.3369 171.272 78.9525 173.219 80.7983C172.937 81.3831 172.828 82.0716 172.946 82.7693C173.18 84.1486 174.192 84.9746 175.364 85.5134C174.875 87.0731 174.644 88.7038 174.781 90.3703C174.826 90.9266 175.31 91.3862 175.822 91.4989C173.916 96.7699 172.952 102.429 172.258 107.943C171.764 111.867 171.52 115.813 171.49 119.766C171.476 121.55 171.505 123.337 171.58 125.122L171.61 125.791C171.702 127.721 171.706 129.747 172.051 131.655C170.874 133.667 170.4 136.165 170.2 138.42C169.952 141.211 170.345 144.09 171.221 146.744C174.528 156.776 184.508 163.106 194.532 164.752C203.811 166.274 214.547 164.225 219.97 155.757C220.055 155.623 219.873 155.512 219.767 155.6C215.888 158.77 211.388 160.184 206.499 160.872C198.046 162.06 188.544 160.045 181.76 154.704C178.504 152.139 176.156 148.406 175.123 144.388C174.597 142.334 174.415 140.192 174.622 138.078C174.834 135.934 175.779 134.104 176.374 132.078C176.574 131.394 176.363 130.759 175.947 130.306C175.83 128.661 175.553 127.002 175.448 125.362C175.331 123.497 175.259 121.632 175.234 119.766C175.185 115.893 175.346 112.014 175.671 108.158C176.264 101.098 177.839 94.2081 178.764 87.2074C179.106 87.5158 179.597 87.6424 180.111 87.373L180.164 87.3437L180.445 87.1822C180.461 87.1822 180.479 87.1845 180.495 87.1866C182.415 87.3739 184.407 87.1059 186.246 86.5304C188.171 85.9299 189.958 85.0058 191.554 83.7743C191.857 85.3198 191.984 86.8816 191.986 88.4573C191.988 89.4415 193.026 89.9524 193.849 89.5319C197.498 87.6694 200.984 85.5233 204.294 83.1112C204.68 85.1005 205.066 87.0895 205.455 89.0811C205.604 89.8484 206.577 90.158 207.2 89.7929C209.679 88.3441 211.82 86.4475 213.563 84.1923C213.911 84.8609 214.26 85.5294 214.612 86.1965L215.141 87.1958C215.663 88.1777 216.362 89.2638 217.505 89.5778C218.714 89.9105 219.724 89.1229 220.131 88.0229C220.255 87.6812 220.37 87.3298 220.476 86.9763C221.506 89.3401 222.669 91.6505 223.985 93.8546C225.958 97.1606 228.327 100.106 230.688 103.128C231.406 104.046 232.634 103.17 232.732 102.278C232.79 101.754 232.838 101.227 232.88 100.702C234.256 103.492 235.692 106.256 237.256 108.94L237.032 109.822V109.822C236.387 112.428 235.851 115.052 235.268 117.671C235.08 118.517 235.527 119.725 236.51 119.869C237.684 120.041 238.795 120.644 239.997 120.229C241.309 119.776 241.568 118.638 242.187 117.558C242.311 117.343 242.454 117.146 242.609 116.958L242.648 117.009V117.009C242.745 117.137 242.975 116.998 242.917 116.852L242.85 116.684V116.684C243.382 116.117 244.018 115.644 244.604 115.135C245.994 114.899 247.559 115.157 248.517 115.725C250.699 117.019 251.702 119.685 251.722 122.136C251.748 125.006 250.862 128.231 249.368 130.685C248.71 131.764 247.808 132.739 246.617 133.217C245.435 133.693 244.154 133.545 242.952 133.993C242.156 134.291 241.666 135.179 242.147 135.982C242.179 136.038 242.216 136.089 242.251 136.142L241.893 136.619C241.647 136.949 241.39 137.303 241.151 137.671C240.539 138.378 239.896 139.06 239.272 139.755C238.121 141.037 237.003 142.355 235.869 143.655C234.8 144.882 233.668 146.035 232.502 147.169C231.401 148.244 230.026 149.147 229.014 150.293C228.03 151.411 227.763 153.364 229.382 154.011C231.173 154.728 232.759 153.046 233.965 151.925L234.016 151.878C236.226 149.834 238.222 147.499 239.807 144.928C241.377 146.002 243.648 146.104 245.212 145.031C246.035 144.466 246.666 143.516 246.973 142.484C247.262 142.549 247.551 142.587 247.833 142.582C247.978 142.667 248.123 142.749 248.271 142.826C249.437 143.436 250.869 143.163 251.403 141.867C251.888 140.69 251.388 139.354 250.95 138.22L250.86 137.985C250.612 137.339 250.338 136.634 249.998 135.971C250.945 135.255 251.755 134.365 252.44 133.353C254.742 129.945 255.891 124.962 255.383 120.896C255.077 118.442 253.93 115.901 252.051 114.246L252.12 114.066V114.066C252.647 112.724 253.125 111.377 253.435 109.958C253.799 108.299 253.976 106.58 254.137 104.891C254.477 101.324 254.385 97.676 253.932 94.1226C253.081 87.434 250.924 80.8678 247.096 75.3021C248.181 73.9965 249.041 72.46 248.593 70.6928C248.388 69.8816 247.921 69.1125 247.217 68.6479C246.829 68.3916 246.367 68.3524 245.978 68.1398L245.861 68.0752C245.69 67.9751 245.821 67.9857 245.923 67.5206C246.325 65.6628 245.992 63.8679 243.957 63.251C242.041 62.6711 240.229 63.9025 239.095 65.3696C236.129 63.2554 232.22 62.1489 228.782 61.2086C224.872 60.1433 220.862 59.4781 216.835 59.0666ZM248.878 121.378C248.892 119.865 247.464 118.932 246.059 119.179C245.115 119.344 244.328 119.91 243.589 120.495L243.228 120.781C242.328 121.491 241.295 122.256 240.758 123.262C239.972 124.745 241.634 126.741 243.186 125.701C244.251 124.984 244.934 123.835 245.632 122.768L245.704 122.658C246.022 122.18 246.3 121.672 246.735 121.288L246.829 121.206C246.972 121.083 247.125 120.971 247.31 120.919C247.666 120.816 248.325 120.96 248.482 121.386L248.496 121.429C248.554 121.644 248.876 121.598 248.878 121.378Z" fill="black"/>
<path fill-rule="evenodd" clip-rule="evenodd" d="M194.813 145.354C196.362 144.721 197.744 143.664 198.755 142.314C199.106 141.844 199.197 141.349 199.123 140.895C199.04 140.386 198.74 139.924 198.329 139.614C197.918 139.303 197.403 139.15 196.906 139.228C196.473 139.296 196.043 139.533 195.702 140.025L195.631 140.124C195.03 140.939 194.247 141.607 193.355 142.038C192.496 142.454 191.534 142.647 190.539 142.535C188.644 142.32 187.338 141.292 185.949 139.897C185.777 139.721 185.605 139.539 185.432 139.355C185.323 139.187 185.171 139.08 185.003 139.023C184.816 138.961 184.604 138.964 184.411 139.032C184.224 139.097 184.057 139.221 183.945 139.386C183.838 139.543 183.778 139.736 183.798 139.959C183.925 141.405 184.679 142.696 185.75 143.709C186.94 144.834 188.517 145.613 190.001 145.886C191.637 146.187 193.304 145.971 194.813 145.354V145.354ZM189.229 123.045C187.489 124.106 184.838 126.579 186.71 129.208C188.913 131.526 192.086 128.868 193.649 127.666C195.099 126.734 196.728 129.13 195.383 130.218C184.085 138.604 179.501 123.323 188.349 121.799C189.323 121.631 189.685 122.717 189.229 123.045ZM209.474 113.291C209.282 110.898 205.647 110.355 205.286 112.722C204.962 114.843 205.343 116.792 206.296 118.701C207.206 120.526 209.495 119.674 209.668 118.013C209.9 115.786 209.594 114.779 209.474 113.291ZM181.806 112.231C181.299 111.566 180.568 111.112 179.691 111.368C176.952 112.171 177.759 116.069 178.721 117.967C179.244 118.997 180.933 119.258 181.697 118.351C182.941 116.872 183.537 113.917 181.955 112.459C181.912 112.384 181.865 112.308 181.806 112.231ZM206.335 102.821L205.902 102.745C204.564 102.513 202.899 102.29 201.953 103.369C201.451 103.941 201.278 105.004 201.953 105.551C203.14 106.515 204.453 106.141 205.875 106.223C207.048 106.291 208.175 106.485 209.304 106.809C211.782 107.519 213.801 108.815 215.917 110.238C216.195 110.425 216.478 110.069 216.346 109.808C215.124 107.409 212.757 105.439 210.385 104.238C209.12 103.597 207.735 103.065 206.335 102.821ZM184.303 101.746L183.972 101.814C180.368 102.569 175.686 104.078 173.98 107.627C173.915 108.128 173.984 108.236 174.039 108.306L174.058 108.33C174.104 108.39 174.141 108.472 174.358 108.541C174.418 108.526 174.479 108.511 174.54 108.495C175.322 108.289 175.941 108.006 176.54 107.712L177.19 107.391C177.944 107.021 178.704 106.664 179.51 106.4C181.229 105.838 182.998 105.442 184.794 105.23C185.184 105.185 185.558 105.053 185.854 104.827C186.135 104.613 186.349 104.316 186.447 103.922C186.574 103.411 186.538 103.025 186.264 102.564C186.059 102.219 185.765 101.979 185.428 101.841C185.084 101.701 184.692 101.668 184.303 101.746Z" fill="black"/>
<path fill-rule="evenodd" clip-rule="evenodd" d="M211.526 146.085C209.661 141.703 205.589 138.482 200.9 137.305C197.457 136.442 193.844 136.47 190.335 136.812C188.496 136.99 186.523 137.136 184.79 137.821C183.311 138.406 182.105 139.511 181.198 140.809C180.119 142.347 179.385 144.107 178.869 145.911C178.796 146.168 178.727 146.426 178.663 146.686C178.887 148.047 179.363 149.205 180.62 150.061C181.847 150.897 183.312 151.239 184.771 151.36C184.914 151.291 185.053 151.22 185.179 151.148C187.454 149.842 189.055 146.757 191.925 147.175C194.487 147.548 196.174 150.779 197.697 152.675C202.588 153.246 207.475 151.773 211.454 148.969C211.656 148.009 211.667 147.042 211.526 146.085M175.339 142.761C175.73 141.66 176.223 140.594 176.807 139.59C178.738 136.269 181.702 133.623 185.221 132.11C193.545 128.537 204.316 131.056 211.038 136.916C213.334 138.92 215.656 141.864 216.358 145.031C216.568 145.072 216.766 145.182 216.929 145.336C221.786 142.27 226.787 139.32 230.701 135.071C233.543 131.983 235.52 128.329 236.731 124.313C236.83 123.983 237.361 124.031 237.345 124.397C237.34 124.483 237.336 124.568 237.331 124.653C237.382 124.496 237.621 124.577 237.64 124.73C238.291 129.608 239.106 134.779 238.355 139.683C237.907 142.608 236.581 144.75 234.809 147.063C232.91 149.542 230.761 151.848 228.563 154.06C227.168 155.463 225.712 157.082 224.004 158.112C222.018 159.307 219.765 160.216 217.645 161.139C215.489 162.08 213.3 162.95 211.07 163.704C206.612 165.217 202.005 166.262 197.317 166.72C193.564 167.085 189.274 167.484 185.677 166.068C182.92 164.983 180.694 163.022 178.929 160.663C177.007 158.093 175.488 155.166 174.649 152.08C173.776 148.873 175.155 143.278 175.339 142.761" fill="black"/>
</svg>
