<svg width="250" height="252" viewBox="0 0 250 252" fill="none" xmlns="http://www.w3.org/2000/svg">
<path fill-rule="evenodd" clip-rule="evenodd" d="M60.9773 138.554C62.8188 131.411 64.5122 128.382 67.7834 125.899C70.8432 123.577 75.3097 121.626 81.8268 120.201C88.6147 119.014 88.8072 115.485 90.5091 109.814C91.0057 108.109 93.4661 107.655 94.5281 108.884C94.6778 108.723 94.8338 108.575 94.9955 108.441C94.8509 107.628 96.0345 105.297 95.995 104.519C95.5822 96.4009 98.2372 92.324 104.864 90.8085C106.305 90.4788 116.093 90.2847 117.498 90.6733C123.641 92.372 129.688 97.7654 128.763 104.262C130.691 106.783 132.578 108.321 135.553 109.133C140.186 109.722 137.859 175.367 129.813 214.696C126.361 231.57 43.8161 202.849 47.546 194.398C47.0173 192.849 47.981 191.146 47.546 189.547C47.2312 188.389 46.4251 187.91 46.0193 186.764C45.4483 185.151 46.0692 182.986 46.7122 181.34C46.9756 180.52 46.2272 179.637 46.0193 178.8C45.0328 174.851 47.2916 175.199 48.92 172.559C48.8958 172.551 48.4723 170.667 48.4742 170.676C48.2249 169.331 48.8495 167.607 49.3943 166.484C49.7626 165.725 50.5514 165.25 51.3352 165.337C50.5459 162.657 49.5476 160.427 48.4742 157.844C46.5758 153.293 44.7704 148.531 42.0443 144.412C40.928 142.725 41.8296 141.173 43.6362 141.058C49.4836 140.686 55.267 139.844 60.9773 138.554Z" fill="#EDB98A"/>
<path fill-rule="evenodd" clip-rule="evenodd" d="M70.1056 139.106L83.4534 161.701C83.4534 161.701 80.2869 162.017 79.0054 162.633C77.7239 163.249 71.8401 170.731 71.8401 170.731L70.9052 174.851L73.1205 178.173L72.2566 180.258C72.2566 180.258 71.6402 178.845 70.1056 177.748C68.571 176.652 65.1867 174.851 65.1867 174.851C65.1867 174.851 66.3114 174.249 66.3114 173.543C66.3114 172.836 67.302 169.822 65.1867 168.683C63.0714 167.544 52.1408 164.88 52.1408 164.88L41.0629 141.506L70.1056 139.106Z" fill="#EC7495"/>
<path fill-rule="evenodd" clip-rule="evenodd" d="M129.649 109.286L87.266 116.727L67.7833 125.899L64.6028 128.35L83.4532 161.701L112.56 167.013L119.975 186.28L118.462 207.997L71.1111 202.35L50.6862 199.922L45.8849 219.311L46.7523 227.287L48.0138 231.332L98.6483 245.006C98.6483 245.006 124.432 242.506 129.003 242.506C133.573 242.506 167.084 245.835 167.084 245.835L174.838 245.006C174.838 245.006 191.992 226.921 194.653 220.484C197.314 214.048 203.067 174.921 203.067 174.921L202.434 168.91L187.612 130.757C187.612 130.757 185.633 128.96 183.138 125.899C180.643 122.838 129.649 109.286 129.649 109.286Z" fill="#9DDADB"/>
<path fill-rule="evenodd" clip-rule="evenodd" d="M52.9405 164.398C56.7708 164.593 60.6053 165.504 64.0701 167.154C65.4877 167.83 66.7722 168.807 67.1483 170.413C67.3384 171.233 67.2919 172.081 67.1907 172.909C67.1145 173.537 67.0954 174.338 66.5504 174.763C66.4574 174.834 66.3581 174.889 66.2546 174.93C67.5328 175.507 68.7499 176.2 69.8316 176.914C70.8201 177.567 71.8363 178.573 72.2926 179.708C72.3307 179.579 72.3687 179.459 72.4067 179.345C73.1842 177.045 74.3821 175.162 76.2687 173.896C76.4829 173.115 78.7821 169.754 80.9178 169.881C83.2566 170.018 85.1377 170.189 87.2527 171.265C88.0236 171.248 88.7928 171.258 89.5532 171.292C89.6842 171.296 89.6778 171.474 89.5532 171.489C88.9363 171.567 88.3194 171.654 87.7025 171.755C86.2363 171.99 84.7743 172.288 83.3442 172.658C81.6285 173.102 79.8539 173.547 78.2504 174.323C75.1407 175.83 73.2159 179.77 73.6109 183.198C73.6764 183.76 73.894 185.459 74.6738 185.284C75.3328 185.136 75.5947 183.76 75.825 183.25C76.4419 181.898 77.5532 181.014 78.8863 180.416C80.4518 179.712 82.1271 179.237 83.7499 178.683C84.6687 178.368 85.5877 178.053 86.5088 177.741C87.4511 177.417 88.3469 176.971 89.3504 177.197C89.9567 177.335 90.0264 178.058 89.6863 178.472C89.1687 179.104 88.3997 179.29 87.6539 179.55C86.6694 179.892 85.687 180.235 84.7046 180.577C83.1858 181.105 81.5947 181.551 80.114 182.198L80.1602 182.304C80.2809 182.27 80.4224 182.39 80.399 182.538C80.1771 183.906 79.8687 185.487 80.2111 186.856C80.4814 187.942 81.4344 189.145 82.6722 188.826C82.4778 188.648 82.406 188.342 82.537 188.059C83.0273 187.01 89.4497 182.872 90.0222 184.409C90.0412 184.464 89.9823 184.504 89.9356 184.496C89.4476 184.394 88.6299 185.227 88.2393 185.491C87.6752 185.871 87.1027 186.243 86.5447 186.634C85.9342 187.061 85.3384 187.509 84.7574 187.972C84.3011 188.336 83.9567 188.714 83.433 188.898C83.7074 189.029 83.9252 189.272 84.018 189.583C84.2546 190.392 84.7109 191.079 85.5032 191.436C86.3335 191.808 87.2694 191.573 88.144 191.665C89.3356 191.785 90.375 192.351 91.2433 193.161C93.0666 194.864 93.9814 197.866 96.5314 198.671C98.0546 199.151 99.7447 198.848 101.287 198.63C103.009 198.387 104.686 198.195 106.421 198.449C108.081 198.692 109.651 199.267 111.168 199.968C112.59 200.626 114.162 201.37 115.423 202.35C115.683 201.549 115.945 200.757 116.144 199.939C116.612 198.005 116.866 196.035 116.927 194.048C116.984 192.157 116.879 190.257 116.716 188.374C116.636 187.433 116.509 186.497 116.429 185.556C116.408 185.32 116.365 185.066 116.333 184.813C114.081 183.483 111.715 182.464 109.33 181.416C109.324 181.414 109.317 181.41 109.311 181.408C109.237 181.374 109.165 181.342 109.091 181.31C109.093 181.306 109.095 181.302 109.1 181.298C108.827 181.131 108.637 180.909 108.523 180.659C105.086 178.379 102.212 175.266 100.07 171.635C99.1722 170.113 98.3081 168.534 97.1335 167.201C95.8828 165.778 94.3976 164.933 92.5595 164.493C90.4109 163.978 88.1968 163.669 85.9954 163.493C84.7933 163.399 83.4499 163.25 82.1398 163.257C81.2271 163.263 80.3337 163.341 79.5138 163.567C78.299 163.901 77.5891 164.825 76.8264 165.759C76.0976 166.655 75.3729 167.554 74.6926 168.488C74.0485 169.373 73.4398 170.288 72.9116 171.248C72.5947 171.823 72.3011 172.415 72.0539 173.025C71.9673 173.241 71.8532 173.486 71.8004 173.71C71.7476 173.936 71.8447 174.175 71.5912 174.175C72.637 174.19 73.3321 176.799 72.2926 176.737C70.8311 176.652 70.0964 174.899 70.3828 173.344C70.8937 170.57 73.6527 167.219 74.1985 166.509C75.4048 164.941 76.649 162.895 78.58 162.166C78.6074 162.156 78.637 162.145 78.6645 162.137C78.1025 161.604 77.6588 160.966 77.2342 160.317C76.7968 159.649 76.2752 158.884 76.1314 158.091C76.0405 157.586 76.668 157.299 76.9659 157.74C77.399 158.385 77.6081 159.201 77.9314 159.909C78.2609 160.628 78.6623 161.306 78.9792 162.031C79.7419 161.796 80.5659 161.689 81.4046 161.653C80.3461 160.22 78.5379 157.455 78.3201 157.1C77.3187 155.456 76.3659 153.761 75.4553 152.064C74.471 150.225 73.6278 148.31 72.6856 146.45C72.1511 145.396 71.6123 144.332 71.0187 143.309C70.8138 142.959 70.594 142.608 70.3447 142.289C70.2961 142.225 70.2349 142.173 70.1778 142.113C70.1123 142.077 70.0447 142.037 70.0067 142.016C69.6647 141.82 69.544 141.363 69.3034 141.073C68.9187 140.607 68.4666 140.552 67.8877 140.545C66.6541 140.532 65.4159 140.581 64.1842 140.615C62.3736 140.665 60.5652 140.737 58.7567 140.832C58.2095 140.862 57.6645 140.892 57.1173 140.925C54.487 141.082 51.8588 141.287 49.237 141.539C46.9173 141.76 44.5976 142.122 42.2757 142.295C45.4194 149.766 48.9053 157.102 52.852 164.183C52.8919 164.254 52.9217 164.326 52.9405 164.398ZM70.3826 183.645C70.8897 183.878 71.3819 184.167 71.8403 184.497C71.7643 183.984 71.7453 183.443 71.7664 182.899C71.3882 183.305 70.9044 183.538 70.3826 183.645ZM48.7381 170.794C48.7741 170.798 48.8079 170.817 48.8248 170.853C49.5262 172.3 49.2327 173.917 48.0874 175.052C47.4874 175.644 46.1797 176.312 46.2222 177.284C46.2581 178.07 47.1135 178.73 47.479 179.378C47.8191 179.983 47.9459 180.646 47.6733 181.302C47.3248 182.141 46.3508 182.475 46.017 183.299C45.5945 184.345 46.2811 185.607 46.7628 186.518C47.2107 187.361 47.7898 188.204 48.1741 189.096C50.7494 190.43 56.5931 192.852 57.2968 192.987C58.1543 193.154 59.0142 193.313 59.8764 193.461C61.5306 193.748 63.1888 194.014 64.8515 194.249C65.798 194.382 66.7466 194.513 67.6952 194.617C68.5233 194.705 69.4571 194.826 70.1248 194.203C71.4705 192.943 70.7163 190.831 69.8649 189.559C69.848 189.534 69.848 189.511 69.8543 189.489C69.0515 189.301 68.2508 189.081 67.4522 188.927C65.9163 188.631 64.3698 188.382 62.8212 188.16C59.6395 187.706 56.4367 187.405 53.2383 187.103C52.4461 187.027 52.4376 185.78 53.2383 185.854C57.8334 186.275 62.4515 186.674 66.9853 187.56C68.1219 187.78 69.2503 188.029 70.3719 188.31C70.9022 188.441 71.4705 188.646 72.0262 188.653C72.06 188.653 72.094 188.653 72.1276 188.65C73.2156 188.617 73.374 187.685 72.7762 186.909C72.7022 186.814 72.6262 186.719 72.548 186.628C71.4917 185.368 70.1757 184.527 68.8193 183.656C67.3001 183.449 65.7853 182.988 64.298 182.65C60.6262 181.813 56.9543 180.976 53.2804 180.141C52.5602 179.976 52.8663 178.869 53.5867 179.032C56.3755 179.664 59.1642 180.296 61.9531 180.928L66.0346 181.853C66.8501 182.037 67.8686 182.407 68.8278 182.54C69.3008 182.606 69.7593 182.614 70.1733 182.517C71.5107 182.2 71.5783 180.528 71.0015 179.535C70.355 178.419 69.1339 177.721 68.0501 177.089C66.1719 175.993 64.1733 175.204 62.2212 174.295C61.8748 174.219 61.5283 174.143 61.1818 174.067C59.1663 173.623 56.8635 173.406 54.9663 172.592C54.398 172.351 54.7088 171.455 55.2705 171.468C56.7431 171.499 58.2832 172.023 59.7219 172.334C61.279 172.672 62.8381 173.008 64.3952 173.344C64.5515 173.378 65.4769 173.674 65.6163 173.609C65.705 173.566 65.7367 173.258 65.7663 173.055C65.8616 172.387 65.9311 171.685 65.8276 171.015C65.5994 169.513 64.3466 168.807 63.079 168.23C60.2564 166.947 57.1614 166.144 54.0811 165.822C53.3712 165.748 52.6614 165.702 51.9473 165.679C51.1088 165.653 50.4177 165.505 49.9931 166.332C49.3255 167.634 48.9579 169.308 48.7381 170.794ZM52.6582 217.997C53.2732 215.869 53.1059 213.597 53.5271 211.427C53.7445 210.307 54.0414 209.196 54.3654 208.103C54.627 207.22 55.0633 206.281 55.1127 205.36C55.1157 205.298 55.0432 205.263 54.9933 205.291C54.1257 205.788 53.4593 206.863 52.9645 207.706C52.3721 208.715 51.9198 209.772 51.5549 210.883C50.8277 213.096 50.2307 215.766 51.1685 217.997C51.4476 218.661 52.4279 218.794 52.6582 217.997ZM76.66 234.106C77.5764 233.466 78.2442 232.571 79.0215 231.782C79.7858 231.006 78.5909 229.81 77.8264 230.587C77.1632 231.26 76.5875 232.101 75.8071 232.646C75.4314 232.908 75.2576 233.381 75.5037 233.802C75.7213 234.174 76.2854 234.367 76.66 234.106ZM81.771 209.516C80.098 208.792 78.4527 208.004 76.7017 207.483C75.6553 207.171 75.2122 208.803 76.2523 209.113C77.8649 209.593 79.3774 210.309 80.9179 210.975C81.9071 211.403 82.7667 209.946 81.771 209.516ZM99.4392 209.009C99.8484 207.999 98.2126 207.564 97.8095 208.56C97.3453 209.706 96.8134 210.822 96.3492 211.968C95.9404 212.978 97.5758 213.414 97.9789 212.418C98.4431 211.272 98.9753 210.155 99.4392 209.009ZM116.878 229.176C117.151 229.54 117.605 229.737 118.034 229.48C118.394 229.264 118.613 228.691 118.338 228.323C117.532 227.249 116.716 226.188 115.772 225.23C115.006 224.454 113.812 225.65 114.577 226.426C115.42 227.281 116.159 228.217 116.878 229.176ZM119.371 116.021C118.596 116.551 117.916 117.195 117.253 117.858C116.483 118.628 117.678 119.823 118.449 119.053C119.007 118.495 119.57 117.928 120.224 117.481C120.602 117.223 120.772 116.742 120.528 116.324C120.309 115.95 119.748 115.764 119.371 116.021ZM94 143.23C94.4386 144.108 94.8334 144.969 94.8583 145.968C94.885 147.056 96.5751 147.057 96.5483 145.968C96.5159 144.661 96.0343 143.528 95.4594 142.376C94.9731 141.401 93.5157 142.259 94 143.23ZM84.692 121.378C83.7833 120.772 82.938 122.237 83.8386 122.838C84.5688 123.324 85.2991 123.812 86.0293 124.298C86.9375 124.904 87.7828 123.439 86.8824 122.838C86.1522 122.352 85.4221 121.865 84.692 121.378ZM125.068 159.584C125.223 160.658 126.852 160.199 126.698 159.134C126.46 157.49 126.17 155.867 125.724 154.265C125.432 153.216 123.802 153.664 124.095 154.714C124.541 156.316 124.831 157.939 125.068 159.584ZM130.994 178.952C132.081 178.929 132.082 177.238 130.994 177.261C130.009 177.282 129.041 177.541 128.092 177.778C127.035 178.042 127.486 179.672 128.541 179.409C129.344 179.208 130.161 178.97 130.994 178.952ZM133.181 217.967C133.555 218.149 133.938 218.313 134.316 218.486C135.073 218.832 135.829 219.178 136.585 219.526C138.159 220.249 139.733 220.974 141.306 221.703C144.454 223.16 147.626 224.567 150.781 226.008C153.999 227.479 157.209 228.969 160.414 230.467C161.924 231.172 163.446 231.851 164.964 232.538C166.263 233.126 167.868 234.152 169.293 234.248C169.366 234.254 169.391 234.161 169.349 234.113C168.81 233.5 167.951 233.144 167.244 232.746C166.521 232.339 165.784 231.956 165.051 231.568C163.523 230.758 161.993 229.954 160.45 229.173C157.363 227.61 154.27 226.059 151.177 224.509C148.023 222.929 144.872 221.338 141.69 219.814C140.191 219.097 138.692 218.381 137.191 217.668C136.378 217.281 135.565 216.896 134.751 216.511C134.4 216.344 134.052 216.165 133.693 216.016C133.216 215.819 132.853 215.859 132.361 215.737C131.558 215.539 131.21 216.56 131.827 217.005C132.334 217.371 132.601 217.684 133.181 217.967ZM144.464 235.305C144.638 234.883 144.274 234.37 143.874 234.265C143.394 234.138 143.009 234.43 142.834 234.855C142.371 235.983 141.711 237.017 140.861 237.891C140.102 238.672 141.297 239.868 142.057 239.087C143.121 237.991 143.886 236.711 144.464 235.305ZM152.765 208.165C153.536 207.394 152.341 206.199 151.57 206.97L149.38 209.161C148.609 209.931 149.805 211.127 150.575 210.356L152.765 208.165ZM175.238 204.592C176.813 205.054 178.65 205.479 179.723 206.823C179.776 206.889 179.864 206.805 179.832 206.739C178.458 203.888 174.516 202.889 171.787 201.89C169.856 201.183 167.876 200.598 165.878 200.074C166.078 197.795 165.528 195.352 165.336 193.084C165.132 190.662 164.966 188.234 164.88 185.805C164.793 183.327 164.772 180.832 164.853 178.353C164.934 175.883 165.255 173.444 165.395 170.983C165.409 170.745 165.078 170.733 165.006 170.93C164.177 173.214 163.822 175.744 163.552 178.153C163.274 180.634 163.182 183.107 163.218 185.603C163.254 188.169 163.403 190.728 163.608 193.286C163.705 194.498 163.818 195.709 163.924 196.92C164.005 197.845 164.043 198.762 164.231 199.657C163.027 199.361 161.819 199.081 160.616 198.809C156.778 197.943 152.924 197.139 149.102 196.202C147.226 195.742 145.377 195.192 143.509 194.703C141.75 194.242 139.894 193.684 138.089 193.478C137.444 193.405 137.362 194.286 137.789 194.586C139.256 195.616 141.205 196.334 142.9 196.911C144.601 197.49 146.37 197.907 148.113 198.335C151.749 199.23 155.42 199.962 159.085 200.723C162.745 201.485 166.412 202.24 170.031 203.179C171.774 203.631 173.51 204.085 175.238 204.592ZM183.868 159.359C184.809 159.911 185.658 158.449 184.721 157.899C183.494 157.178 182.186 156.637 180.868 156.109C179.857 155.704 179.421 157.34 180.419 157.74C181.603 158.214 182.765 158.711 183.868 159.359ZM187.275 222.175C188.218 222.722 189.068 221.261 188.127 220.715C186.806 219.949 185.359 219.438 183.99 218.767C183.016 218.29 182.16 219.749 183.137 220.227C184.506 220.898 185.953 221.409 187.275 222.175ZM188.807 186.518C187.895 187.385 186.677 187.793 185.529 188.248C184.528 188.645 184.967 190.279 185.979 189.879C187.409 189.311 188.866 188.793 190.002 187.713C190.793 186.962 189.596 185.768 188.807 186.518ZM178.715 138.092C177.712 138.485 178.151 140.12 179.164 139.722C180.288 139.282 181.448 138.946 182.571 138.505C183.574 138.112 183.135 136.477 182.122 136.875C180.998 137.315 179.838 137.651 178.715 138.092ZM160.911 118.857C159.845 118.678 159.391 120.307 160.461 120.488C161.789 120.712 163.096 120.974 164.355 121.462C165.372 121.855 165.808 120.22 164.805 119.831C163.545 119.344 162.238 119.082 160.911 118.857ZM155.028 165.689C156.005 165.208 155.147 163.751 154.175 164.229C153.15 164.733 152.088 165.123 150.969 165.361C149.904 165.588 150.358 167.218 151.419 166.992C152.677 166.723 153.875 166.256 155.028 165.689ZM149.472 139.309C148.42 139.021 147.975 140.653 149.023 140.94C150.866 141.445 152.764 141.708 154.62 142.157C155.679 142.413 156.126 140.783 155.07 140.527C153.213 140.077 151.315 139.815 149.472 139.309ZM125.902 131.031C124.832 131.229 125.288 132.858 126.351 132.662C127.483 132.452 128.63 132.449 129.777 132.448C130.866 132.448 130.864 130.757 129.777 130.757C128.473 130.758 127.187 130.793 125.902 131.031ZM49.0298 139.865C51.791 139.6 54.5565 139.389 57.3263 139.23C57.4553 139.224 57.5819 139.216 57.711 139.209C57.7256 139.18 57.7446 139.152 57.7638 139.122C58.6678 137.795 59.3333 136.468 59.9101 134.967C60.4615 133.539 60.996 132.066 61.8453 130.776C62.8139 129.308 64.1217 128.158 65.5549 127.162C66.4243 127.747 67.2311 128.432 67.9693 129.158C68.7461 129.921 69.9415 128.726 69.1644 127.962C68.5084 127.317 67.8083 126.721 67.0682 126.183C67.9228 125.663 68.7947 125.175 69.6453 124.689C72.8335 122.87 76.0974 121.187 79.4291 119.649C80.9777 118.932 82.5453 118.296 84.1234 117.651C84.9729 117.305 85.8115 116.859 86.6608 116.457C86.5995 115.857 86.7791 115.185 87.2396 114.79C87.5798 114.5 87.8439 114.392 88.2495 114.188C88.3403 114.156 88.3953 114.137 88.4206 114.126C88.4016 114.13 88.3467 114.147 88.2561 114.177C88.0404 114.276 88.0234 114.247 88.2051 114.09C88.2157 113.748 88.8899 113.025 89.0439 112.672C89.5805 111.461 89.7474 110.18 90.5396 109.077C91.6319 107.557 93.4657 106.983 95.1751 107.498C95.3523 105.67 95.3988 103.762 96.0875 102.13C96.1065 102.086 96.1678 102.066 96.1953 102.115C96.9136 103.339 96.9749 104.702 97.0298 106.114C97.0826 107.439 97.0321 108.794 96.8587 110.11C96.9685 110.195 97.0805 110.275 97.1967 110.353C97.7418 110.713 98.3291 110.99 98.946 111.195C100.121 111.584 101.352 111.753 102.584 111.812C105.764 111.964 109.04 111.643 112.167 111.097C115.33 110.546 120.178 109.717 122.992 108.134C124.85 107.09 126.563 105.816 128.3 104.581C127.67 102.553 127.509 100.371 128.143 98.6573C128.219 98.4523 128.54 98.4143 128.602 98.6573C128.999 100.293 129.115 101.937 129.643 103.554C129.652 103.578 129.66 103.603 129.669 103.626C129.833 103.514 129.998 103.404 130.163 103.294C130.543 103.043 131.061 103.231 131.289 103.59C134.938 109.341 140.716 109.671 146.783 110.698C153.424 111.822 160.097 113.035 166.482 115.236C172.588 117.341 178.423 120.405 183.045 124.983C184.092 126.02 185.07 127.124 185.994 128.277C185.1 128.39 184.214 128.565 183.339 128.84C182.303 129.166 182.748 130.797 183.789 130.47C184.913 130.117 186.05 129.942 187.198 129.855C190.339 134.154 192.788 139.028 194.906 143.825C198.968 153.023 201.612 162.819 202.829 172.792C202.161 172.391 201.48 172.01 200.784 171.655C199.815 171.162 198.961 172.621 199.93 173.115C201.007 173.663 202.053 174.267 203.066 174.921C203.509 179.287 203.68 183.68 203.576 188.067C203.329 198.525 201.918 209.289 198.726 219.266C197.16 224.163 195.085 229.021 191.995 233.159C190.596 235.033 189.007 236.724 187.135 238.134C186.229 238.819 185.27 239.43 184.258 239.945C182.954 240.613 181.256 240.833 180.132 241.777C179.762 242.088 179.477 242.498 179.261 242.961C179.386 243.84 179.401 244.722 179.16 245.601C179.084 245.876 178.877 246.1 178.621 246.207C178.617 246.283 178.617 246.357 178.617 246.429C178.617 246.463 178.566 246.472 178.56 246.438C178.55 246.372 178.539 246.307 178.528 246.239C178.446 246.266 178.359 246.279 178.271 246.279C175.061 246.291 171.848 246.213 168.635 246.104C168.883 245.343 169.153 244.588 169.411 243.826C169.762 242.792 168.129 242.352 167.781 243.377C167.479 244.267 167.163 245.15 166.882 246.043C163.439 245.915 159.997 245.761 156.561 245.647C149.253 245.404 141.947 245.324 134.638 245.17C123.286 244.929 111.852 244.436 100.483 244.918C100.09 244.083 99.6495 243.268 99.2322 242.444C98.74 241.473 97.2823 242.329 97.7728 243.298C98.0629 243.87 98.3633 244.435 98.6487 245.006C96.3461 245.126 94.0458 245.284 91.7504 245.5C87.8335 245.867 83.9544 246.52 80.0417 246.926C76.0638 247.34 72.172 247.266 68.2256 246.609C67.5157 246.491 67.0974 246.061 66.9242 245.529C66.918 245.527 66.9136 245.523 66.9096 245.516C66.7067 245.279 66.5164 245.083 66.3201 244.912C66.0854 244.76 65.8319 244.631 65.534 244.517C64.9784 244.305 64.3995 244.176 63.8122 244.09C63.1657 243.993 62.5108 243.984 61.8643 243.904C61.3194 243.834 60.7868 243.73 60.2546 243.604C59.2974 243.375 58.3889 243.077 57.4847 242.682C56.6967 242.338 55.9849 241.843 55.3129 241.304C53.9227 240.287 52.7187 238.99 51.6664 237.641C51.0537 236.853 50.477 236.035 49.953 235.183C49.0403 233.708 48.2629 232.176 47.477 230.631C47.1918 230.173 46.9315 229.704 46.6936 229.226C48.2295 228.773 49.7802 228.404 51.4084 228.378C52.4969 228.36 52.4967 226.669 51.4084 226.687C49.541 226.717 47.7746 227.153 46.0196 227.673C45.9341 227.446 45.8521 227.217 45.7763 226.985C45.5671 226.501 45.3939 226.004 45.2502 225.501C45.1659 225.273 45.0812 225.045 44.9967 224.817C44.8065 224.026 44.6164 223.234 44.4241 222.441C44.0418 221.173 43.7398 219.886 43.5178 218.582C43.3319 217.724 43.1882 216.859 43.0911 215.984C42.7953 213.864 42.5544 211.749 42.5375 209.606C42.5629 208.285 42.6474 206.966 42.791 205.653C42.8523 204.762 42.9558 203.874 43.0953 202.993C43.277 201.682 43.4565 200.385 43.7587 199.091C43.9847 198.216 44.2108 197.341 44.4368 196.466C45.0009 194.642 45.6664 192.854 46.4335 191.106C46.4756 190.996 46.6891 190.755 46.8178 190.753C46.915 190.751 47.0504 190.84 47.0061 190.958C47.0016 190.969 46.9976 190.981 46.9932 190.992C47.0375 190.893 47.0798 190.791 47.1241 190.692C47.1622 190.599 47.3101 190.413 47.4242 190.415C47.4305 190.415 47.437 190.415 47.4453 190.417C47.4157 190.396 47.3882 190.369 47.3608 190.337C46.6023 189.439 46.1101 188.257 45.5671 187.217C45.1171 186.359 44.6925 185.455 44.5699 184.485C44.4624 183.633 44.6079 182.794 45.1425 182.105C45.7509 181.321 46.896 180.953 46.2601 179.82C45.5375 178.531 44.4749 177.413 45.5333 175.948C46.072 175.202 46.9256 174.792 47.5594 174.143C48.2882 173.393 48.6349 172.389 48.6157 171.364C48.5713 171.389 48.5122 171.377 48.4911 171.313C47.8784 169.462 48.322 167.429 48.9495 165.626C49.2918 164.647 50.0166 164.379 50.8594 164.33C47.2089 157.197 43.7927 149.95 40.7481 142.536C40.6467 142.293 40.5474 142.05 40.4483 141.807C40.3002 141.443 40.6129 140.959 40.9741 140.879C43.6065 140.302 46.3488 140.118 49.0298 139.865Z" fill="black"/>
<path fill-rule="evenodd" clip-rule="evenodd" d="M75.0564 43.4568C76.9644 35.393 75.0564 18.4568 91.4589 25.7561C111.556 5.8372 148.463 16.6488 148.296 46.6652C149.017 50.1711 149.309 53.7759 149.071 57.3513C148.972 58.8768 150.79 59.0839 151.675 60.4568C153.671 63.0253 152.354 66.8405 151.675 70.2572C151.107 73.2404 149.082 75.3539 146.349 76.4774C144.71 76.949 143.155 77.9761 142.548 79.5418C138.899 86.2382 136.196 91.8082 130.444 96.3718C128.96 97.5467 113.737 104.594 108.722 104.594C94.0378 104.594 72.3636 101.4 72.0564 84.9568C72.0033 81.3452 71.6598 73.8402 72.0564 70.2572C73.0217 62.0805 70.4121 43.4568 75.0564 43.4568Z" fill="#EDB98A"/>
<path fill-rule="evenodd" clip-rule="evenodd" d="M116.39 2.31662C108.146 1.47794 100.067 2.18261 91.943 3.64071C91.3222 3.75369 90.9703 4.16286 90.8395 4.65475C87.0127 4.83034 83.1817 5.11244 79.36 5.32268C77.9731 5.39893 77.1869 6.7757 77.8193 8.01893C77.9455 8.26591 78.0768 8.50619 78.2102 8.74647L78.0426 8.69097C76.893 8.32042 75.6511 8.13773 74.5309 8.72591C73.1051 9.47448 72.5461 11.1262 72.8611 12.6464C72.9419 13.0346 73.0773 13.4066 73.2314 13.7695C72.9186 13.7487 72.6036 13.7557 72.2909 13.7973C70.626 14.0191 69.3888 15.3013 69.3014 17.0087C69.1726 19.5869 70.826 22.2025 72.7738 24.0483C72.4911 24.6331 72.3828 25.3216 72.5003 26.0193C72.7349 27.3986 73.7463 28.2246 74.9186 28.7634C74.4297 30.3231 74.1986 31.9538 74.335 33.6203C74.3805 34.1766 74.8648 34.6362 75.376 34.7489C73.4705 40.0199 72.5061 45.679 71.8125 51.1932C71.3181 55.1165 71.0744 59.0627 71.0447 63.0156C71.0302 64.8003 71.0595 66.5869 71.134 68.3719L71.1641 69.0411C71.256 70.9705 71.2606 72.9965 71.6056 74.9052C70.4282 76.9173 69.9545 79.4151 69.7544 81.6698C69.5061 84.4608 69.8993 87.3395 70.7757 89.9944C74.0825 100.026 84.0624 106.356 94.0865 108.002C103.365 109.524 114.102 107.475 119.524 99.0071C119.609 98.8731 119.428 98.7624 119.322 98.8502C115.442 102.02 110.942 103.434 106.053 104.122C97.6 105.31 88.0984 103.295 81.3146 97.9538C78.0584 95.3892 75.7106 91.6556 74.6778 87.6376C74.1512 85.5839 73.9695 83.4419 74.1767 81.3281C74.3883 79.184 75.3332 77.3542 75.9288 75.328C76.1289 74.6439 75.9173 74.0085 75.5011 73.5559C75.384 71.9107 75.1078 70.2518 75.0023 68.6116C74.885 66.7469 74.8135 64.8824 74.7882 63.0156C74.7399 59.1434 74.9009 55.2642 75.2251 51.4083C75.8184 44.3475 77.3936 37.4581 78.318 30.4574C78.6604 30.7658 79.151 30.8924 79.6652 30.623L79.7185 30.5937L79.999 30.4322C80.0151 30.4322 80.0335 30.4345 80.0499 30.4366C81.9698 30.6239 83.9612 30.3559 85.8009 29.7804C87.7259 29.1799 89.5124 28.2558 91.1085 27.0243C91.4118 28.5698 91.5385 30.1316 91.5406 31.7073C91.5429 32.6915 92.58 33.2024 93.4033 32.7819C97.0527 30.9194 100.539 28.7733 103.848 26.3612C104.235 28.3505 104.621 30.3395 105.009 32.3311C105.159 33.0984 106.132 33.408 106.755 33.0429C109.234 31.5941 111.374 29.6975 113.118 27.4423C113.466 28.1109 113.815 28.7794 114.166 29.4465L114.695 30.4458C115.217 31.4277 115.916 32.5138 117.059 32.8278C118.269 33.1605 119.278 32.3729 119.685 31.2729C119.809 30.9312 119.924 30.5798 120.03 30.2263C121.061 32.5901 122.224 34.9005 123.539 37.1046C125.512 40.4106 127.881 43.3564 130.243 46.3784C130.96 47.2958 132.188 46.42 132.287 45.5284C132.344 45.0039 132.393 44.4771 132.434 43.9524C133.81 46.7425 135.246 49.5064 136.811 52.1902L136.587 53.0721V53.0721C135.941 55.6777 135.405 58.3019 134.822 60.9214C134.634 61.7666 135.081 62.9749 136.064 63.1189C137.238 63.2908 138.349 63.8935 139.552 63.4788C140.863 63.0265 141.123 61.8877 141.742 60.8082C141.865 60.5931 142.009 60.3956 142.163 60.208L142.203 60.2593V60.2593C142.299 60.3866 142.529 60.248 142.472 60.1024L142.404 59.9342V59.9342C142.936 59.367 143.573 58.8938 144.158 58.3848C145.549 58.1494 147.113 58.4073 148.071 58.9749C150.254 60.2685 151.256 62.9347 151.277 65.3863C151.302 68.2558 150.417 71.4811 148.922 73.9348C148.264 75.0138 147.363 75.9885 146.172 76.467C144.99 76.9427 143.709 76.7951 142.506 77.2431C141.711 77.5413 141.221 78.4285 141.701 79.2323C141.734 79.288 141.77 79.3386 141.805 79.392L141.447 79.869C141.201 80.1994 140.945 80.5531 140.706 80.9212C140.094 81.6285 139.45 82.31 138.827 83.0055C137.675 84.2875 136.557 85.6047 135.424 86.9052C134.354 88.1322 133.223 89.2849 132.057 90.4193C130.955 91.4939 129.58 92.397 128.568 93.5432C127.584 94.6615 127.317 96.6135 128.937 97.2607C130.728 97.9783 132.313 96.2963 133.519 95.175L133.57 95.1279C135.78 93.0844 137.776 90.749 139.361 88.1778C140.932 89.2516 143.203 89.3542 144.766 88.2806C145.589 87.7157 146.22 86.7663 146.527 85.7336C146.816 85.7987 147.105 85.8369 147.387 85.8325C147.532 85.917 147.678 85.9993 147.825 86.076C148.991 86.6857 150.424 86.4133 150.957 85.1169C151.443 83.9401 150.942 82.6036 150.505 81.4697L150.414 81.2354C150.166 80.5888 149.892 79.8841 149.552 79.221C150.499 78.5048 151.309 77.615 151.994 76.6033C154.296 73.1955 155.446 68.2117 154.938 64.1456C154.632 61.692 153.485 59.1505 151.606 57.496L151.675 57.3158V57.3158C152.201 55.9737 152.68 54.6265 152.99 53.2082C153.353 51.5493 153.531 49.8303 153.691 48.1414C154.032 44.5742 153.94 40.926 153.487 37.3726C152.636 30.684 150.479 24.1178 146.65 18.5521C147.736 17.2465 148.595 15.71 148.147 13.9428C147.942 13.1316 147.476 12.3625 146.772 11.8979C146.383 11.6416 145.921 11.6024 145.532 11.3898L145.416 11.3252C145.245 11.2251 145.375 11.2357 145.477 10.7706C145.88 8.91282 145.546 7.11787 143.511 6.50099C141.596 5.92108 139.783 7.15253 138.65 8.61963C135.683 6.50538 131.774 5.39893 128.336 4.45859C124.427 3.39326 120.417 2.7281 116.39 2.31662ZM148.432 64.6283C148.446 63.115 147.018 62.1816 145.613 62.429C144.669 62.594 143.882 63.1598 143.143 63.7446L142.783 64.0311C141.883 64.741 140.849 65.5064 140.313 66.5115C139.526 67.9948 141.189 69.9907 142.741 68.9511C143.806 68.2341 144.488 67.0854 145.187 66.0183L145.259 65.9083C145.576 65.43 145.854 64.9217 146.289 64.5382L146.383 64.4555C146.526 64.3331 146.68 64.2214 146.864 64.1685C147.22 64.0657 147.88 64.2097 148.037 64.6356L148.051 64.6791C148.108 64.8942 148.43 64.8478 148.432 64.6283Z" fill="black"/>
<path fill-rule="evenodd" clip-rule="evenodd" d="M109.803 73.7617C104.202 73.7617 99.662 69.7875 99.662 64.885C99.662 59.9825 104.202 56.0083 109.803 56.0083C115.403 56.0083 121.465 59.8213 121.465 64.7238C121.465 66.804 119.826 70.439 118.457 71.9522C116.6 74.0053 113.027 73.7617 109.803 73.7617Z" fill="white"/>
<path fill-rule="evenodd" clip-rule="evenodd" d="M85.6643 72.0628C81.377 72.0628 77.9014 68.4689 77.9014 64.0356C77.9014 59.6022 81.377 56.0083 85.6643 56.0083C89.9517 56.0083 94.5916 59.4564 94.5916 63.8898C94.5916 65.7709 93.3375 69.058 92.2895 70.4265C90.8677 72.2831 88.1325 72.0628 85.6643 72.0628Z" fill="white"/>
<path fill-rule="evenodd" clip-rule="evenodd" d="M110.944 81.2758C110.9 81.2348 110.83 81.2204 110.776 81.254C109.862 81.8323 109.754 83.7769 109.744 84.9001C109.366 84.9985 108.992 85.1106 108.639 85.1888C107.889 85.3548 107.134 85.4996 106.382 85.6523L105.818 85.7687C103.932 86.1663 102.011 86.4604 100.089 86.6078C98.224 86.7506 96.3048 86.8028 94.4451 86.5625C93.6465 86.4592 92.8525 86.2867 92.0808 86.0566C91.1685 85.7843 90.442 85.3331 89.5935 84.9379C87.4694 83.9481 85.6893 86.8485 87.7335 88.1212C89.4883 89.2133 91.8824 89.607 93.908 89.7761C95.9784 89.9488 98.0408 89.7592 100.086 89.4316C102.298 89.0772 104.464 88.5329 106.561 87.7438C107.448 87.4102 108.306 87.0057 109.144 86.5634L109.372 86.4419C109.511 86.367 109.656 86.2912 109.802 86.2142C109.959 87.6148 110.411 88.9677 110.958 90.2681L110.971 90.2453C111.27 91.2712 112.35 91.9059 113.424 91.4528C114.685 90.9213 114.781 89.5259 114.047 88.5355L114.012 88.4894C113.15 87.379 112.609 86.0014 112.139 84.6883C111.898 84.0151 111.675 83.3257 111.481 82.6371C111.341 82.139 111.336 81.6379 110.944 81.2758ZM77.4445 68.1223C78.1921 70.3824 79.8225 72.1228 82.0936 72.8881C84.3445 73.6466 86.8479 73.3701 89.1486 72.96C89.6519 72.8703 90.1621 72.7712 90.6714 72.6557C90.2546 72.914 89.8865 73.2775 89.5342 73.6618C89.0134 74.2301 88.5409 74.8289 88.3977 75.5402C88.2555 76.2459 88.4795 76.7829 88.888 77.1881C89.5165 77.8114 90.5303 78.1472 91.389 78.3328C93.3119 78.7486 95.2381 78.6838 97.1515 78.2577C97.6401 78.1489 97.9714 77.8868 98.1573 77.545C98.3833 77.1297 98.4017 76.6134 98.2721 76.143C98.1426 75.673 97.8627 75.2397 97.4564 74.9998C97.122 74.8024 96.7037 74.7482 96.2289 74.9063C95.276 75.2234 94.33 75.4335 93.3235 75.4578C92.8976 75.4677 92.4687 75.4551 92.0434 75.416C91.8029 75.3939 91.5628 75.3633 91.3242 75.325C91.4648 75.1378 91.6013 74.9471 91.7347 74.7544C91.8924 74.5267 92.0459 74.296 92.1925 74.0615C92.6163 73.3825 92.9692 72.6844 93.2793 71.9476C93.3788 71.7116 93.4711 71.4745 93.5596 71.2367C93.5724 71.2024 93.585 71.1681 93.5978 71.1337C93.6251 71.1109 93.6522 71.0878 93.6791 71.0645C94.2857 70.5395 94.7943 69.8928 95.154 69.0918C96.1279 66.9221 95.9693 64.2289 95.3784 61.976C94.9048 60.1702 93.8594 58.4999 92.4783 57.3652C92.2371 56.9683 92.078 56.7275 91.8828 56.5247C91.0891 55.6986 89.9816 55.1415 88.9007 54.8025C86.4867 54.0453 83.8575 54.5886 81.8112 56.0304C79.9218 57.3618 78.4426 59.3584 77.6433 61.579C76.8864 63.6821 76.7387 65.9888 77.4445 68.1223ZM110.326 54.3872C107.455 54.3627 104.534 55.2107 102.205 56.9076C99.9757 58.5314 98.226 60.9287 98.2281 63.7843C98.2302 66.5646 99.7158 69.2982 101.364 71.4508C103.213 73.8674 105.63 75.0326 108.669 75.0594C110.248 75.0735 111.839 74.9336 113.408 74.7414L114.249 74.6352C115.408 74.4857 116.579 74.3088 117.677 73.9105C122.904 72.0136 123.066 65.1684 121.13 60.7928C119.635 57.4146 115.852 54.1201 112.079 54.5155C111.51 54.4358 110.927 54.3925 110.326 54.3872ZM105.477 57.6062C109.073 55.9919 113.441 56.4752 116.928 58.198C118.31 59.7057 119.319 61.606 119.728 63.3505C120.164 65.2127 120.1 67.2186 119.444 69.0235C118.643 71.2269 116.671 71.7726 114.544 72.1111L113.718 72.2409L113.371 72.2934C111.281 72.6054 108.995 72.848 106.987 72.4575C104.748 72.022 103.326 70.2126 102.207 68.3575L102.154 68.2705C100.992 66.3267 100.019 63.9627 100.994 61.7355C101.823 59.8425 103.633 58.4342 105.477 57.6062ZM84.2575 58.1687C85.4913 57.4848 86.8985 57.3605 88.2308 57.8183C88.804 58.0152 89.2992 58.3344 89.7795 58.6922L89.971 58.8372C90.5616 59.2907 91.1132 59.5204 91.5562 60.1329L91.6134 60.215C91.8369 60.5489 92.2279 60.6825 92.5841 60.6381C92.9993 61.783 93.1706 63.0211 93.1741 64.24L93.1737 64.4015L93.1716 64.5662C93.145 66.0069 92.8937 67.7694 91.7606 68.735C90.7271 69.6155 89.1621 69.8269 87.765 69.9495L86.6882 70.0393L86.402 70.0609C84.9293 70.1634 83.3156 70.1285 82.0814 69.2564C81.0065 68.4968 80.4994 67.2075 80.368 65.9346C80.0572 62.9273 81.5788 59.6534 84.2575 58.1687ZM111.114 58.4467C109.134 57.4356 106.756 57.689 105.079 58.9562C105.228 58.9854 105.374 59.0226 105.521 59.0959C105.901 59.2868 106.137 59.6689 106.227 60.0755C106.329 60.5352 106.091 60.9704 105.637 61.1154C105.242 61.2413 104.774 61.299 104.408 61.0592C104.216 60.9336 104.082 60.7681 103.994 60.5597L103.981 60.5291L103.966 60.5066L103.96 60.4961C103.958 60.4921 103.965 60.4997 103.976 60.5168C103.965 60.4908 103.955 60.4648 103.944 60.4384C103.929 60.4069 103.914 60.3752 103.902 60.3425C103.881 60.3241 103.861 60.3036 103.842 60.2831C103.537 60.7521 103.298 61.2817 103.146 61.8709C102.171 65.6531 106.168 69.578 109.739 69.9707C111.089 70.1191 112.32 69.7976 113.341 69.164C113.332 69.1515 113.321 69.1403 113.313 69.1272C112.903 69.201 112.413 69.0173 112.264 68.5596C111.884 67.3918 112.274 66.0259 113.545 65.6444C114.364 65.3988 115.201 65.6702 115.786 66.2298C116.229 65.1467 116.387 63.9272 116.178 62.7058C115.882 60.9826 114.843 59.4299 113.226 58.713C112.439 58.3636 111.76 58.2903 111.114 58.4467ZM90.264 60.78L90.2037 60.685C89.5919 59.7432 88.4225 58.5879 87.2105 58.9055C87.0402 58.9501 86.8733 59.022 86.7229 59.1152C86.057 59.0247 85.3598 59.1761 84.7873 59.5284L84.8029 59.5679C84.8053 59.5745 84.8076 59.5812 84.8093 59.5882C84.8614 59.8173 84.831 60.0291 84.7241 60.2396C84.6081 60.4676 84.4427 60.6838 84.2188 60.8147C84.0652 60.9043 83.8845 60.9514 83.7075 60.9478C83.4478 60.9432 83.2193 60.8288 83.0317 60.6542C82.9296 60.5596 82.8584 60.4207 82.8191 60.2778C82.7266 60.3666 82.6368 60.4655 82.5512 60.5777C81.1461 62.4262 81.3402 65.3965 82.9888 67.0442C83.0553 67.1106 83.1261 67.1706 83.196 67.2319C83.8653 68.1536 84.8969 68.7792 86.136 68.9058C87.2832 69.0231 88.4304 68.6836 89.3101 67.9879C89.2393 67.9503 89.1732 67.9014 89.1162 67.8368C88.966 67.6666 88.8424 67.4988 88.7511 67.2911C88.7281 67.2388 88.706 67.1861 88.6851 67.133L88.6545 67.0529C88.6492 67.0381 88.6024 66.903 88.6149 66.9267L88.6177 66.9322L88.6011 66.8932C88.4437 66.5001 88.5073 66.0507 88.881 65.8041L88.9222 65.7784C89.0443 65.7072 89.1956 65.6736 89.3488 65.6732C89.7303 65.2059 90.2982 65.0987 90.8312 65.2353L90.85 65.0844C90.8528 65.0592 90.8553 65.034 90.857 65.0087C91.27 63.6389 91.0708 62.0823 90.264 60.78ZM108.601 46.9894L108.464 46.9681C107.427 46.8182 106.722 46.9908 106.048 47.8773C105.726 48.2998 105.825 48.9379 106.048 49.3697C106.766 50.7648 108.741 50.4763 110.071 50.7534C111.369 51.0237 112.665 51.3917 113.88 51.9272C115.12 52.4738 116.284 53.1203 117.419 53.8585C118.445 54.5266 119.376 55.5307 120.549 55.9194C120.602 55.937 120.666 55.8896 120.662 55.8336C120.579 54.4994 119.465 53.2746 118.602 52.3243C117.604 51.2255 116.39 50.2499 115.126 49.4743C113.822 48.6741 112.412 48.0153 110.952 47.5559C110.183 47.3139 109.397 47.1215 108.601 46.9894ZM92.8042 48.8012C91.4985 46.8912 88.2528 47.2575 86.3377 47.7679C83.9364 48.4074 81.3344 49.7011 79.6506 51.5737C78.1424 53.2512 80.399 55.4306 82.095 54.019L82.5476 53.6435L82.8373 53.4055C84.1393 52.3417 85.4287 51.3788 87.0154 50.6695C88.8759 49.8383 90.761 49.4333 92.7273 48.9903C92.8046 48.973 92.85 48.8682 92.8042 48.8012Z" fill="black"/>
<path fill-rule="evenodd" clip-rule="evenodd" d="M112.607 91.5557C110.897 87.547 107.164 84.6008 102.865 83.5237C99.7091 82.7347 96.3966 82.7599 93.1791 83.073C91.4933 83.2359 89.6851 83.3694 88.0964 83.9957C86.7397 84.5308 85.6342 85.5421 84.8029 86.7293C83.8133 88.136 83.1403 89.7461 82.6677 91.3964C82.6006 91.6311 82.5375 91.8674 82.4786 92.105C82.6841 93.3501 83.1205 94.4099 84.2733 95.1927C85.3983 95.9572 86.7406 96.2699 88.0787 96.3809C88.2099 96.3179 88.3367 96.2531 88.453 96.1867C90.5381 94.9926 92.0058 92.1706 94.6376 92.5525C96.9863 92.8935 98.5325 95.8499 99.9292 97.5835C104.413 98.1061 108.893 96.7584 112.541 94.1937C112.726 93.3158 112.737 92.4306 112.607 91.5557M79.4315 88.5146C79.7902 87.5077 80.2419 86.5326 80.7774 85.6139C82.5476 82.5759 85.2651 80.1552 88.4911 78.7715C96.1225 75.5027 105.997 77.8069 112.16 83.1681C114.265 85.0008 116.394 87.6939 117.037 90.5908C117.229 90.6289 117.411 90.729 117.56 90.8699C122.013 88.0654 126.598 85.3672 130.186 81.4797C132.792 78.6552 134.604 75.3125 135.714 71.6393C135.805 71.3369 136.292 71.3812 136.278 71.7157C136.273 71.7939 136.269 71.872 136.265 71.9503C136.311 71.8064 136.531 71.8805 136.548 72.0201C137.145 76.4823 137.892 81.2131 137.204 85.6985C136.792 88.375 135.577 90.3344 133.953 92.4501C132.212 94.718 130.241 96.8274 128.226 98.8503C126.948 100.134 125.612 101.615 124.047 102.557C122.226 103.651 120.16 104.482 118.217 105.326C116.24 106.188 114.234 106.983 112.189 107.673C108.102 109.057 103.878 110.013 99.5806 110.432C96.1394 110.766 92.2066 111.13 88.9089 109.835C86.3812 108.843 84.341 107.049 82.7227 104.891C80.961 102.54 79.5682 99.8625 78.7983 97.039C77.9983 94.1062 79.2629 88.9875 79.4315 88.5146" fill="black"/>
</svg>
